<svg width="208" height="50" viewBox="0 0 208 50" fill="none" xmlns="http://www.w3.org/2000/svg">
<path d="M177.257 48.7148H185.302V31.5959C185.302 27.513 187.149 22.3775 193.217 22.3775C197.306 22.3775 199.151 24.3532 199.151 28.9624V48.7148H207.196V26.6588C207.196 16.9789 200.667 14.6086 194.997 14.6086C190.445 14.6086 187.213 16.3858 185.433 18.6914H185.302V0.517925H177.257V48.7148ZM174.751 24.09C172.707 19.0862 168.75 14.6086 160.638 14.6086C149.824 14.6086 143.559 22.1144 143.559 32.0554C143.559 41.9984 149.824 49.5042 160.044 49.5042C169.08 49.5042 172.904 44.1724 175.146 39.2981L168.288 35.6787C167.035 38.707 164.991 42.1299 160.178 42.1299C154.572 42.1299 151.999 37.2597 151.999 32.0554C151.999 26.8551 154.9 21.9828 160.638 21.9828C163.803 21.9828 166.639 24.0232 167.696 27.3167L174.751 24.09ZM116.213 27.7762C117.071 24.2216 120.171 21.1934 124.852 21.1934C130.259 21.1934 132.435 25.9989 132.435 27.7762H116.213ZM140.877 33.9662C140.877 22.0476 135.997 14.6086 124.852 14.6086C114.036 14.6086 107.771 22.1144 107.771 32.0554C107.771 41.9984 114.036 49.5042 124.852 49.5042C133.951 49.5042 138.766 45.1602 141.272 41.3405L134.48 37.3912C133.688 38.5086 131.182 42.1299 124.852 42.1299C120.499 42.1299 116.345 38.9054 116.213 33.9662H140.877ZM92.1215 8.14318V41.0773C92.1215 46.148 94.3638 49.1095 100.957 49.1095C103.465 49.1095 105.442 48.7148 107.355 48.32V41.7352C106.167 41.8668 104.914 42.1299 103.793 42.1299C100.693 42.1299 100.166 40.6826 100.166 38.0491V21.1934H107.355V15.398H100.166V0.100933L92.1215 8.14318ZM78.6411 48.7148H86.6859V0.517925H78.6411V48.7148ZM64.8364 36.7981C64.8364 41.0773 60.0234 42.9214 56.2625 42.9214C53.3613 42.9214 51.0541 41.2737 51.0541 38.7718C51.0541 35.6119 53.5599 34.7557 56.593 34.1646L61.0107 33.2416C62.4623 32.9784 63.7822 32.5837 64.8364 32.0554V36.7981ZM72.8812 25.5394C72.8812 16.0579 65.694 14.6086 58.5048 14.6086C51.1858 14.6086 44.2602 17.6368 44.2602 25.4726L52.307 25.8025C52.307 22.1812 53.8235 20.7986 58.5048 20.7986C62.0001 20.7986 64.8364 21.7197 64.8364 25.0111V25.9989C62.7928 26.7236 59.0319 27.3814 56.1307 27.9745L52.7672 28.6324C47.8223 29.6202 42.6119 32.5189 42.6119 39.0369C42.6119 45.4881 47.6237 49.5042 53.9553 49.5042C58.1095 49.5042 61.7365 48.1885 64.8364 45.6865C64.8364 46.5428 65.1 47.9253 65.6271 48.7148H74.1342C73.674 47.9901 72.8812 46.5428 72.8812 43.1178V25.5394ZM41.3995 15.398C39.1572 5.58861 31.9679 0.649498 22.5384 0.649498C8.49244 0.649498 0.277344 12.0398 0.277344 25.2742C0.277344 38.5086 7.50306 49.8989 22.5384 49.8989C31.903 49.8989 38.1678 45.3566 41.9266 35.9419L33.8818 32.2537C32.1666 37.7192 28.6713 41.7352 22.5384 41.7352C13.1737 41.7352 9.28314 33.4399 9.28314 25.2742C9.28314 17.1105 13.1737 8.81523 22.5384 8.81523C27.8806 8.81523 32.1666 12.3698 32.8924 17.572L41.3995 15.398Z" fill="#E0E0E0"/>
</svg>
