<svg width="250" height="64" viewBox="0 0 250 64" fill="none" xmlns="http://www.w3.org/2000/svg">
<path d="M100.805 43.932C100.805 43.3978 100.449 43.0417 99.7371 42.8637V42.5076C100.093 42.5076 101.429 42.5966 101.785 42.5966C102.052 42.5966 103.387 42.5076 103.743 42.5076V42.8637C103.12 43.0417 102.764 43.3979 102.764 43.932V50.6093C102.764 52.746 103.921 53.9034 106.325 53.9034C108.462 53.9034 110.064 52.9241 110.064 50.6984V43.843C110.064 43.3088 109.708 42.9527 108.996 42.7747V42.5076C109.263 42.5076 110.332 42.5966 110.688 42.5966C111.044 42.5966 112.112 42.5076 112.379 42.5076V42.8637C111.578 43.0417 111.311 43.3979 111.311 43.932V50.4313C111.311 53.3692 109.619 55.0609 105.969 55.0609C102.586 55.0609 100.805 53.5474 100.805 50.7875L100.805 43.932ZM115.406 54.5263C116.207 54.3482 116.474 53.9921 116.474 53.4579V44.1992C116.474 43.3979 116.029 43.0418 115.317 42.8637V42.5076H117.899L125.912 51.9445V43.9317C125.912 43.3975 125.556 43.0414 124.843 42.8633V42.5072C125.11 42.5072 126.179 42.5963 126.535 42.5963C126.891 42.5963 127.959 42.5072 128.226 42.5072V42.8633C127.425 43.0414 127.069 43.3975 127.069 43.9317V55.0601H126.624C126.357 54.9711 125.734 54.704 124.843 53.7247L117.632 45.3558V53.5466C117.632 54.0808 117.899 54.4369 118.7 54.615V54.9711C118.433 54.9711 117.365 54.8821 117.009 54.8821C116.652 54.8821 115.584 54.9711 115.317 54.9711L115.406 54.5263ZM178.794 52.0334H179.151C179.329 52.7457 179.685 53.3689 180.308 53.725C180.842 54.1701 181.821 54.3482 182.534 54.3482C184.136 54.3482 185.204 53.5469 185.204 52.3005C185.204 50.9651 183.869 50.3419 182.356 49.5407C181.198 48.9174 178.883 48.0272 178.883 45.8014C178.883 43.7538 180.486 42.4184 182.979 42.4184C184.67 42.4184 185.383 42.8635 186.54 42.7745V45.2673H186.184C185.739 43.7538 184.403 43.3087 182.89 43.3087C181.198 43.3087 180.664 44.288 180.664 45.1783C180.664 46.5137 181.999 47.2259 183.513 47.9381C185.205 48.6504 187.074 49.6297 187.074 51.7664C187.074 53.8141 185.472 55.2385 182.623 55.2385C180.931 55.2385 179.863 54.7043 178.972 54.6153L178.794 52.0334ZM213.249 49.7187L209.955 44.4659C209.42 43.5755 208.975 43.0414 208.352 42.8633V42.5072C208.797 42.5072 210.044 42.5963 210.311 42.5963C210.667 42.5963 211.913 42.5072 212.447 42.5072V42.8633C212.002 42.9524 211.824 43.1304 211.824 43.4866C211.824 43.7536 212.002 44.1098 212.18 44.4659C212.358 44.733 214.584 48.4722 214.584 48.4722L216.899 44.4659C217.166 44.0207 217.255 43.6646 217.255 43.3976C217.255 43.1305 217.077 42.9524 216.721 42.9524V42.5073C217.077 42.5073 217.967 42.5963 218.234 42.5963C218.501 42.5963 219.481 42.5073 219.837 42.5073V42.8634C218.946 43.2195 218.412 44.0207 217.878 44.911L214.94 49.8968M215.118 49.2736V53.4579C215.118 53.9031 215.474 54.4373 216.187 54.5263V54.8824C215.83 54.8824 214.495 54.7934 214.139 54.7934C213.783 54.7934 212.536 54.8824 212.091 54.8824V54.5263C212.803 54.3482 213.16 53.903 213.16 53.4579V49.4516M152.533 42.5072H160.189C160.456 42.5072 160.812 42.5072 161.079 42.3292H161.436L161.347 44.822H160.99C160.723 44.0207 160.367 43.3975 158.943 43.3975H155.649V47.8491H158.231C158.587 47.8491 159.032 47.8491 159.21 47.76C159.744 47.671 160.011 47.3149 160.189 46.7807H160.545V49.8967H160.189C160.011 49.3625 159.833 49.0064 159.21 48.9174C159.032 48.8283 158.587 48.8283 158.231 48.8283H155.649V53.9031H159.299C160.901 53.9031 161.347 53.2799 161.703 52.3006H162.059L161.703 54.8824C160.545 54.7934 159.833 54.7934 158.498 54.7934H154.669C154.313 54.7934 152.978 54.8824 152.533 54.8824V54.5263C153.245 54.3483 153.601 54.0812 153.601 53.369V43.9321C153.601 43.3089 153.245 42.9528 152.533 42.8638L152.533 42.5072ZM132.946 44.0207C132.946 43.3975 132.59 43.0414 131.878 42.8633V42.5072C132.323 42.5072 133.569 42.5962 134.014 42.5962C134.371 42.5962 135.706 42.5072 136.151 42.5072V42.8633C135.439 43.0414 134.994 43.3085 134.994 44.0207V53.3685C134.994 53.9917 135.35 54.3479 136.151 54.5259V54.882C135.706 54.882 134.46 54.793 134.014 54.793C133.658 54.793 132.323 54.882 131.878 54.882V54.5259C132.679 54.3478 133.035 54.0807 133.035 53.3685L132.946 44.0207ZM191.083 44.0207C191.083 43.3975 190.727 43.0414 190.015 42.8633V42.5072C190.46 42.5072 191.795 42.5962 192.151 42.5962C192.507 42.5962 193.843 42.5072 194.288 42.5072V42.8633C193.576 43.0414 193.22 43.3085 193.22 44.0207V53.3685C193.22 53.9917 193.576 54.3479 194.288 54.5259V54.882C193.843 54.882 192.596 54.793 192.151 54.793C191.795 54.793 190.46 54.882 190.015 54.882V54.5259C190.816 54.3478 191.083 54.0807 191.083 53.3685V44.0207ZM201.766 42.5962C197.582 42.5962 196.869 42.5072 196.068 42.4182V44.911H196.424C196.78 43.7536 197.404 43.4865 198.205 43.4865H200.876V53.2795C200.876 53.9027 200.52 54.2588 199.718 54.4369V54.793C200.164 54.793 201.499 54.704 201.855 54.704C202.211 54.704 203.547 54.793 203.992 54.793V54.4369C203.28 54.2588 202.834 53.9027 202.834 53.2795V43.4865H205.416C206.218 43.4865 206.841 43.7536 207.197 44.911H207.553V42.4182C206.574 42.5072 205.951 42.5962 201.766 42.5962ZM168.202 53.3686C168.202 53.9918 168.559 54.3479 169.36 54.5259V54.882C168.915 54.882 167.579 54.793 167.223 54.793C166.867 54.793 165.621 54.882 165.175 54.882V54.5259C165.888 54.3479 166.244 54.0808 166.244 53.3686V43.9317C166.244 43.3085 165.888 42.9524 165.175 42.8634V42.5073C165.621 42.5073 166.867 42.5963 167.223 42.5963C167.846 42.5963 169.538 42.5073 170.25 42.5073C173.188 42.5073 174.791 43.7536 174.791 45.8013C174.791 47.4038 173.544 48.5612 171.675 49.0064C171.675 49.0064 172.12 49.2734 172.565 49.7186C173.099 50.3418 174.524 52.3005 175.058 53.0127C175.592 53.7249 176.393 54.5261 177.194 54.5261V54.7932C176.838 54.8823 176.215 54.9713 175.77 54.9713C174.791 54.9713 173.989 54.6152 173.188 53.7249C172.476 52.9236 171.408 51.2321 170.695 50.3418C170.25 49.8076 169.716 49.3625 168.826 49.1844C168.648 49.1844 168.47 49.0954 168.292 49.0954L168.202 53.3686ZM168.202 48.3828C168.558 48.4718 169.182 48.4719 169.716 48.4719C172.031 48.4719 172.743 47.1364 172.743 45.979C172.743 44.2875 171.674 43.3082 169.627 43.3082C169.182 43.3082 168.647 43.3972 168.202 43.4862V48.3828ZM139.001 44.0203C138.734 43.3971 138.289 42.952 137.577 42.8629V42.5068C138.022 42.5068 139.535 42.5959 139.891 42.5959C140.158 42.5959 141.494 42.5068 141.939 42.5068V42.8629C141.583 42.952 141.049 43.13 141.049 43.5752C141.049 43.8423 141.227 44.2874 141.583 44.9996L144.788 52.2112L147.815 44.9996C148.082 44.3764 148.26 43.9313 148.26 43.6642C148.26 43.3081 147.904 43.041 147.37 42.952V42.5068C147.726 42.5068 148.705 42.5958 149.061 42.5958C149.328 42.5958 150.486 42.5068 150.931 42.5068V42.8629C150.219 43.041 149.685 43.4862 149.328 44.4655L144.877 54.8816H143.898L139.001 44.0203ZM150.397 11.1687C149.862 10.0114 149.061 9.21009 147.815 8.943V8.31978C148.616 8.31978 151.376 8.40881 151.999 8.40881C152.533 8.40881 155.204 8.31978 156.094 8.31978V8.943C155.382 9.12105 154.492 9.47718 154.492 10.2784C154.492 10.8126 154.848 11.6138 155.471 12.9493L161.525 26.6596L167.223 12.9493C167.669 11.8809 168.025 10.9906 168.025 10.3674C168.025 9.65516 167.312 9.12102 166.422 8.94295V8.31974C167.223 8.31974 169.004 8.40876 169.627 8.40876C170.161 8.40876 172.298 8.31974 173.188 8.31974V8.94295C171.764 9.29907 170.874 10.1893 170.072 11.9699L161.703 31.7344H159.834L150.397 11.1687ZM69.3784 30.9332C70.4467 30.6661 71.248 30.2209 71.248 28.9745V10.9017C71.248 9.74432 70.5358 9.21013 69.3784 8.94304V8.23079C69.9126 8.23079 72.4054 8.31982 73.0286 8.31982C73.7409 8.31982 76.3227 8.23079 76.8569 8.23079V8.85401C75.7885 9.12109 74.9872 9.56626 74.9872 10.8126V18.4693H88.5195V10.9017C88.5195 9.65529 87.8073 9.1211 86.6499 8.94304V8.23079C87.1841 8.23079 89.7659 8.31982 90.4782 8.31982C91.1014 8.31982 93.5942 8.23079 94.2174 8.23079V8.85401C93.149 9.12109 92.3478 9.56626 92.3478 10.8126V28.8855C92.3478 30.0429 93.06 30.5771 94.2174 30.8441V31.4674C93.6832 31.4674 91.1014 31.3783 90.4782 31.3783C89.7659 31.3783 87.2731 31.4674 86.6499 31.4674V30.9332C87.7182 30.6661 88.5195 30.2209 88.5195 28.9745V20.4276H74.9872V28.9745C74.9872 30.2209 75.6995 30.6661 76.8569 30.9332V31.5564C76.3227 31.5564 73.6518 31.4674 73.0286 31.4674C72.4054 31.4674 70.0016 31.5564 69.3784 31.5564V30.9332ZM225.359 30.9332C226.783 30.6661 227.496 30.1319 227.496 28.8855V10.9017C227.496 9.65529 226.694 9.1211 225.359 8.94304V8.23079C226.16 8.23079 228.653 8.31982 229.365 8.31982C230.523 8.31982 233.639 8.05273 236.132 8.05273C244.412 8.05273 249.486 12.6823 249.486 19.7154C249.486 26.5707 244.233 31.6451 235.686 31.6451C233.194 31.6451 230.345 31.467 229.187 31.467C228.475 31.467 226.16 31.5561 225.359 31.5561V30.9332ZM231.235 29.7758C232.125 29.9539 233.639 30.0429 234.885 30.0429C241.83 30.0429 245.479 25.8585 245.479 19.9828C245.479 13.9287 241.651 9.65567 235.152 9.65567C233.817 9.65567 232.125 9.7447 231.235 9.92276V29.7758ZM131.434 28.7965C131.434 29.9539 132.236 30.6661 133.571 30.9332V31.5564C132.77 31.5564 130.277 31.4674 129.476 31.4674C128.852 31.4674 126.36 31.5564 125.558 31.5564V30.9332C126.894 30.6661 127.606 30.0429 127.606 28.7965V10.9908C127.606 9.92242 126.983 9.21018 125.558 8.94308V8.23083C126.36 8.23083 128.763 8.31987 129.476 8.31987C130.633 8.31987 133.838 8.14181 135.174 8.14181C140.783 8.14181 143.899 10.4566 143.899 14.374C143.899 17.49 141.584 19.5378 138.023 20.4281C138.023 20.4281 138.824 20.8732 139.625 21.8525C140.604 23.0099 143.364 26.9273 144.433 28.2628C145.501 29.5982 146.926 31.1117 148.439 31.1117V31.6459C147.727 31.8239 146.57 31.9129 145.679 31.9129C143.81 31.9129 142.296 31.2007 140.783 29.4201C139.536 27.9066 137.31 24.6124 136.064 23.0099C135.263 21.9416 134.283 21.1403 132.503 20.8732C132.147 20.7842 131.791 20.7842 131.434 20.6951L131.434 28.7965ZM131.434 19.3597C132.147 19.4487 133.304 19.5377 134.372 19.5377C138.735 19.5377 140.07 17.0449 140.07 14.8191C140.07 11.7031 137.934 9.74431 134.194 9.74431C133.393 9.74431 132.236 9.83334 131.434 10.0114V19.3597ZM204.973 28.7965C204.973 29.9539 205.774 30.6661 207.11 30.9332V31.5564C206.308 31.5564 203.816 31.4674 203.103 31.4674C202.48 31.4674 199.987 31.5564 199.186 31.5564V30.9332C200.522 30.6661 201.234 30.0429 201.234 28.7965V10.9908C201.234 9.92242 200.611 9.21018 199.186 8.94308V8.23083C199.987 8.23083 202.391 8.31987 203.103 8.31987C204.261 8.31987 207.466 8.14181 208.712 8.14181C214.321 8.14181 217.437 10.4566 217.437 14.374C217.437 17.49 215.123 19.5378 211.561 20.4281C211.561 20.4281 212.363 20.8732 213.164 21.8525C214.143 23.0099 216.903 26.9273 217.972 28.2628C219.04 29.5982 220.464 31.1117 221.978 31.1117V31.6459C221.266 31.8239 220.108 31.9129 219.218 31.9129C217.348 31.9129 215.835 31.2007 214.321 29.4201C213.075 27.9066 210.849 24.6124 209.603 23.0099C208.801 21.9416 207.822 21.1403 206.042 20.8732C205.685 20.7842 205.329 20.7842 204.973 20.6951L204.973 28.7965ZM204.973 19.3597C205.685 19.4487 206.843 19.5377 207.911 19.5377C212.273 19.5377 213.609 17.0449 213.609 14.8191C213.609 11.7031 211.472 9.74431 207.733 9.74431C206.932 9.74431 205.774 9.83334 204.973 10.0114V19.3597ZM97.6025 30.9333C99.116 30.5771 99.9173 29.5978 100.451 28.3514L107.93 10.3676C108.286 9.65533 108.642 8.14185 108.642 8.14185H110.779C110.779 8.14185 111.135 9.65533 111.491 10.4566L119.415 28.4404C119.949 29.6868 120.572 30.5771 122.175 30.9333V31.5565C121.285 31.5565 118.703 31.4675 118.08 31.4675C117.456 31.4675 114.964 31.5565 114.073 31.5565V30.9333C115.231 30.6662 115.587 30.043 115.587 29.5088C115.587 29.0637 115.409 28.4405 115.142 27.9063L113.45 24.0781H104.725L103.211 27.9953C103.033 28.4405 102.855 29.0637 102.855 29.5088C102.855 30.132 103.211 30.6662 104.458 31.0223V31.6455C103.657 31.6455 101.609 31.5565 101.164 31.5565L97.7807 31.6455L97.6025 30.9333ZM112.47 22.2082L108.731 13.5722L105.259 22.2082H112.47ZM171.674 30.9333C173.187 30.5771 173.988 29.5978 174.523 28.3514L182.001 10.3676C182.357 9.65533 182.713 8.14185 182.713 8.14185H184.85C184.85 8.14185 185.206 9.65533 185.562 10.4566L193.486 28.4404C194.02 29.6868 194.644 30.5771 196.246 30.9333V31.5565C195.356 31.5565 192.774 31.4675 192.151 31.4675C191.528 31.4675 189.035 31.5565 188.144 31.5565V30.9333C189.302 30.6662 189.658 30.043 189.658 29.5088C189.658 29.0637 189.48 28.4405 189.213 27.9063L187.521 24.0781H178.796L177.283 27.9953C177.105 28.4405 176.927 29.0637 176.927 29.5088C176.927 30.132 177.283 30.6662 178.529 31.0223V31.6455C177.728 31.6455 175.68 31.5565 175.235 31.5565L171.852 31.6455V30.9333H171.674ZM186.452 22.2082L182.713 13.5722L179.241 22.2082H186.452Z" fill="#E0E0E0"/>
<path d="M0.380258 1.02051H52.4612V20.6959C52.4612 29.6876 49.0781 48.8289 26.6427 63.0738C26.6427 63.0738 2.24862 52.9247 0.378967 20.6959L0.380258 1.02051Z" fill="black"/>
<path d="M17.5056 32.0612C17.3748 32.0558 17.2614 32.1211 17.17 32.2003C16.9918 32.3547 16.8852 32.568 16.8796 32.5793C16.6809 32.8575 16.2628 32.9275 15.8832 32.9167C15.5036 32.9058 15.1772 32.8193 15.1772 32.8193L15.1564 32.814L15.1355 32.8211C14.5898 33.003 14.3469 33.2351 14.247 33.4349C14.197 33.5348 14.1844 33.6251 14.1844 33.6905C14.1844 33.7418 14.1909 33.7644 14.1948 33.7792V35.8189C14.1749 35.9313 14.1228 36.0002 14.0505 36.0484C13.9771 36.0974 13.8793 36.1233 13.781 36.1336C13.5844 36.1542 13.3932 36.1128 13.3932 36.1128H13.3914C12.7069 35.9759 12.2375 36.1363 11.9447 36.3353C11.6567 36.5312 11.5417 36.7589 11.5378 36.7666C11.245 37.1629 11.4387 37.7195 11.4387 37.7195V37.7229C11.4577 37.7735 11.4797 37.8214 11.5048 37.8655C11.5051 37.8663 11.5083 37.8759 11.5083 37.8759C11.7753 38.5881 12.755 38.5871 12.755 38.5871C13.1111 38.8541 13.7339 38.6757 13.7339 38.6757C13.9169 38.6757 14.0233 38.7518 14.0887 38.8479C14.1211 38.9791 14.1061 39.1104 14.1061 39.1104L14.1043 39.1261L14.1078 39.14C14.1137 39.1637 14.1261 39.2872 14.1321 39.4565C14.1382 39.6257 14.1405 39.8484 14.1426 40.1068C14.1467 40.6235 14.1446 41.2803 14.1391 41.9256C14.1279 43.2161 14.106 44.4626 14.106 44.4626C14.106 44.898 14.0208 45.1529 14.0208 45.1529L14.0174 45.1633V45.1754C14.0174 45.1971 14.0102 45.2082 13.986 45.2276C13.9619 45.2469 13.9193 45.2681 13.8626 45.2832C13.7491 45.3135 13.5863 45.325 13.4227 45.325C13.0953 45.325 12.7637 45.2815 12.7637 45.2815L12.755 45.2798L12.7462 45.2815C11.8191 45.3742 11.5321 46.2064 11.529 46.2153V46.217C11.4556 46.3898 11.462 46.5649 11.5117 46.723C11.5366 46.8023 11.5728 46.878 11.6142 46.9491C11.7797 47.3532 12.2211 47.6689 12.2211 47.6689C12.2211 47.847 13.913 47.935 13.913 47.935C14.0156 47.9606 14.0853 48.0327 14.1373 48.1193C14.1425 48.1351 14.1487 48.1502 14.153 48.1662C14.1946 48.3222 14.1947 48.4688 14.1947 48.4688C14.182 48.5163 14.1772 48.5695 14.1738 48.6461C14.1701 48.7326 14.1682 48.8393 14.1703 48.9591C14.1745 49.1988 14.1884 49.492 14.2051 49.7764C14.2386 50.3451 14.2834 50.8788 14.2834 50.8788L14.2851 50.8823V50.8857C14.2946 50.9425 14.3222 50.9915 14.3564 51.0352C14.3564 51.0355 14.3582 51.0509 14.3582 51.0509C14.4472 51.5851 16.1388 51.4074 16.1388 51.4074C16.1388 51.4074 22.0677 51.2705 23.6698 51.2961C23.8987 51.2995 24.0388 51.3076 24.0611 51.3187C24.2391 51.3187 24.6853 51.23 24.6853 51.23L25.3078 51.6752C25.5582 51.8699 25.8176 51.9255 26.0555 51.9099C26.1031 51.9073 26.1507 51.9009 26.1964 51.8926C26.6528 51.8099 26.9997 51.4961 26.9997 51.4961L27.89 51.3187C28.0681 51.3187 35.28 51.2301 35.28 51.2301C35.9032 51.4081 36.1703 51.1396 36.1703 51.1396L37.3266 51.051C37.3712 51.051 37.4127 51.0475 37.4518 51.0406C37.7347 50.9888 37.8802 50.7626 37.9561 50.5415C37.9787 50.4976 38.0025 50.4539 38.0187 50.4094C38.1131 50.1499 38.1108 49.8947 38.1108 49.8947V48.3888C38.1257 48.2697 38.1533 48.1767 38.1839 48.0932C38.3461 47.8071 38.5734 47.7576 38.5734 47.7576L39.641 47.5785L40.1766 47.3125C40.382 47.2611 40.4903 47.1174 40.5522 46.9439C40.568 46.9191 40.5849 46.8956 40.5974 46.8691C40.6712 46.7122 40.693 46.5295 40.693 46.3561C40.693 46.0093 40.6009 45.6902 40.6009 45.6902L40.5991 45.6831L40.5974 45.6759C40.4025 45.2861 39.9529 45.1272 39.5645 45.0587C39.1762 44.9901 38.8342 45.0134 38.8342 45.0134H38.8325C38.4039 45.0563 38.2422 44.9336 38.1682 44.8135C38.0943 44.6933 38.1109 44.5631 38.1109 44.5631V44.5577L38.2013 39.0404C38.2364 38.8336 38.2965 38.6689 38.356 38.5344C38.4257 38.4012 38.4847 38.3205 38.4847 38.3205C38.7518 38.4095 39.641 38.1414 39.641 38.1414C40.1527 38.0902 40.3658 37.7765 40.4583 37.5171C40.4665 37.502 40.479 37.487 40.4862 37.4719C40.6035 37.2256 40.6027 36.9986 40.6027 36.992C40.6502 36.6429 40.4074 36.3544 40.1662 36.1591C39.924 35.963 39.6706 35.8496 39.6706 35.8496L39.6567 35.8425H38.4065C38.3718 35.8353 38.3437 35.817 38.3143 35.7781C38.2843 35.7384 38.2557 35.6794 38.2343 35.6077C38.1917 35.4642 38.172 35.2704 38.1665 35.0791C38.1556 34.6965 38.1996 34.3227 38.1996 34.3227L38.2013 34.3174V33.6015C38.2013 33.2551 37.954 33.0119 37.7214 32.8607C37.4888 32.7095 37.2588 32.6416 37.2588 32.6416L37.2484 32.6382H35.6608C35.6249 32.5787 35.5849 32.5203 35.5252 32.4817C35.4463 32.4306 35.355 32.3925 35.2679 32.3635C35.0935 32.3053 34.9323 32.2835 34.9323 32.2835C34.642 32.1923 34.2106 32.1931 34.2106 32.1931H34.188L34.1689 32.2053C33.6146 32.589 32.6421 32.7499 31.8127 32.8052C30.9833 32.8605 30.2982 32.8174 30.2982 32.8174L27.5056 32.6366L27.4813 32.6592C27.4895 32.6512 27.4718 32.6654 27.443 32.6749C27.4143 32.6845 27.373 32.6961 27.3265 32.7062C27.2336 32.7264 27.1155 32.7453 26.9996 32.7619C26.7678 32.795 26.5458 32.8175 26.5458 32.8175L26.5006 32.8209L26.4849 32.8662C26.4082 33.0963 26.1754 33.1757 26.1754 33.1757L25.9302 33.2591C25.7675 33.1209 25.5138 33.0159 25.2729 32.9426C25.0188 32.8653 24.8078 32.8228 24.7982 32.8209C24.7965 32.8201 24.7947 32.8183 24.793 32.8175C24.7845 32.814 24.776 32.8121 24.7686 32.8103C24.7539 32.8069 24.7399 32.805 24.7217 32.8032C24.6853 32.7998 24.6385 32.7988 24.5809 32.7979C24.4656 32.797 24.3081 32.8004 24.1218 32.8068C23.7493 32.8193 23.2621 32.8433 22.7777 32.8711C21.8098 32.9268 20.8545 32.9945 20.8528 32.9946C19.749 33.0388 19.0035 32.8617 18.5349 32.6764C18.0663 32.4911 17.8811 32.3043 17.8811 32.3043C17.7636 32.1437 17.6338 32.0663 17.5056 32.0612ZM17.5003 32.2072C17.5782 32.2107 17.6684 32.2541 17.7716 32.3985L17.7733 32.4019L17.7768 32.4073C17.7768 32.4073 17.9926 32.6193 18.4811 32.8124C18.9695 33.0055 19.7361 33.186 20.8581 33.1411H20.8633C20.8633 33.1411 21.8189 33.0732 22.7865 33.0176C23.2703 32.9898 23.7568 32.9658 24.1271 32.9532C24.3123 32.947 24.4699 32.9435 24.581 32.9443C24.6366 32.9448 24.6802 32.9469 24.7097 32.9497C24.722 32.9505 24.73 32.9523 24.7358 32.9531L24.7392 32.9566L24.7601 32.9619C24.7601 32.9619 24.981 33.0052 25.2331 33.0819C25.4852 33.1586 25.7711 33.2756 25.8817 33.3862L25.913 33.4175L26.2225 33.3149C26.2225 33.3149 26.4125 33.2036 26.5407 33.0106C26.4416 33.2516 26.1982 33.3341 26.1982 33.3341L25.9321 33.5132C25.665 33.2461 24.774 33.068 24.774 33.068C24.685 32.979 20.8564 33.2454 20.8564 33.2454C18.6307 33.3344 17.8291 32.5342 17.8291 32.5342C17.3839 31.911 16.9388 32.8002 16.9388 32.8002C16.4936 33.4235 15.1582 33.068 15.1582 33.068C14.6655 33.2323 14.4449 33.4335 14.3427 33.6036C14.3496 33.5725 14.3603 33.5388 14.3792 33.501C14.4565 33.3465 14.6644 33.1385 15.1739 32.9654C15.2024 32.9726 15.5 33.0519 15.8815 33.0628C16.281 33.0742 16.7531 33.0097 16.9996 32.6646L17.0031 32.6612L17.0066 32.6558C17.0066 32.6558 17.1146 32.4407 17.2657 32.3098C17.3412 32.2444 17.4224 32.2041 17.5003 32.2072ZM34.2317 32.3411C34.2633 32.3415 34.6664 32.3465 34.9011 32.4245L34.9081 32.4263L34.9133 32.428C34.9133 32.428 35.065 32.4496 35.2246 32.5028C35.3043 32.5294 35.3859 32.5629 35.4489 32.6036C35.459 32.6099 35.4643 32.6177 35.4732 32.6244C35.2595 32.4928 34.9238 32.4436 34.9238 32.4436C34.6567 32.3546 34.2108 32.3549 34.2108 32.3549C33.0535 33.1562 30.2932 32.9792 30.2932 32.9792L27.5337 32.8001C27.4457 32.888 26.5852 32.9754 26.5651 32.9775C26.5689 32.9712 26.5738 32.9665 26.5773 32.9601C26.5903 32.9592 26.794 32.9388 27.0225 32.9061C27.1403 32.8893 27.2607 32.8703 27.3598 32.8488C27.4093 32.838 27.4532 32.8263 27.4902 32.814C27.511 32.8069 27.5268 32.795 27.5441 32.7862L30.2898 32.9618C30.2898 32.9618 30.9853 33.0074 31.8252 32.9514C32.6552 32.8961 33.6269 32.7476 34.2317 32.3411ZM35.6263 32.7845H37.226C37.2311 32.7862 37.3583 32.835 37.5059 32.9114C37.3567 32.8369 37.2381 32.8002 37.2381 32.8002H35.6349C35.6332 32.7948 35.6286 32.7899 35.6263 32.7845ZM37.5355 32.9271C37.5737 32.9477 37.6051 32.9585 37.6451 32.9844C37.656 32.9916 37.6655 33.0013 37.6764 33.0087C37.6283 32.9779 37.5811 32.9509 37.5355 32.9271ZM38.1702 35.8153C38.1801 35.8321 38.1882 35.8505 38.1997 35.8657C38.2452 35.9258 38.3067 35.9723 38.3823 35.9874L38.3892 35.9891H39.6238C39.6343 35.9936 39.8559 36.0962 40.0759 36.2743C40.2301 36.3992 40.3658 36.5555 40.4271 36.7282C40.2678 36.472 39.9738 36.2757 39.7942 36.1735C39.7038 36.122 39.6412 36.0952 39.6412 36.0952H38.3961C38.2871 36.0734 38.2162 35.9648 38.1702 35.8153ZM14.2247 36.0866C14.0009 36.5101 13.3779 36.3613 13.3779 36.3613C12.0425 36.0942 11.5973 36.9856 11.5973 36.9856C11.5851 37.0018 11.5781 37.0191 11.5678 37.036C11.588 36.9705 11.6154 36.907 11.6582 36.8499L11.6651 36.8392C11.6651 36.8392 11.7666 36.6343 12.0303 36.4549C12.2936 36.2759 12.7145 36.1257 13.364 36.255C13.364 36.255 13.5724 36.3015 13.7987 36.2776C13.9118 36.2657 14.0324 36.2377 14.1343 36.1698C14.1679 36.1473 14.1971 36.1183 14.2247 36.0866ZM38.0558 44.9006C38.1634 45.0645 38.3977 45.204 38.8469 45.1597C38.8469 45.1597 39.1741 45.1382 39.5425 45.2032C39.9101 45.2681 40.304 45.4196 40.4658 45.7405C40.4663 45.7422 40.476 45.7869 40.4797 45.8014C40.0622 45.1845 38.8417 45.2641 38.8417 45.2641C38.2597 45.3223 38.0992 45.0781 38.0558 44.9006ZM14.0996 45.3197C14.0983 45.3241 14.0908 45.3527 14.0908 45.3527C14.0908 45.3973 14.07 45.4348 14.0334 45.464C13.9969 45.4932 13.9448 45.5151 13.8822 45.5319C13.5066 45.632 12.7554 45.5319 12.7554 45.5319C12.1109 45.5963 11.7951 46.0306 11.6686 46.2674C11.6686 46.2674 11.9162 45.5139 12.7624 45.4275C12.7774 45.4292 13.0924 45.471 13.4248 45.471C13.595 45.471 13.7644 45.4606 13.9013 45.4241C13.9697 45.4058 14.0315 45.3814 14.0804 45.3423C14.088 45.3361 14.0927 45.3269 14.0996 45.3197ZM20.302 7.34863L20.276 7.37126C18.8866 8.5001 16.8678 7.97985 16.8678 7.97985L16.8591 7.97813H16.8504C14.8896 7.97813 14.2578 8.0668 14.2578 8.0668L14.23 8.07214L14.2126 8.09295C14.0099 8.33614 13.7615 8.33271 13.5431 8.27032C13.3299 8.20933 13.1683 8.08998 13.1606 8.08426C13.1205 8.02568 13.0563 7.99234 12.9867 7.96776C12.9078 7.93988 12.8175 7.9236 12.7311 7.91211C12.5582 7.88905 12.399 7.88781 12.399 7.88781H12.3955L12.3937 7.88953C10.4399 8.02274 9.22158 7.9109 8.49522 7.76781C8.13204 7.69632 7.89214 7.61626 7.74405 7.55567C7.59595 7.49504 7.54408 7.45655 7.54408 7.45655L7.55281 7.46546C7.52447 7.43716 7.49728 7.42683 7.46413 7.41676C7.43097 7.4067 7.39283 7.39904 7.3511 7.39246C7.26765 7.3793 7.16882 7.37199 7.07289 7.36635C6.88102 7.35478 6.70078 7.35414 6.70078 7.35414H6.65557L6.6347 7.39409C6.55727 7.54894 6.31723 7.87387 6.2991 7.89834C6.28831 7.90179 6.26436 7.90901 6.22086 7.914C6.17065 7.91933 6.10516 7.92415 6.03132 7.92622C5.88364 7.93065 5.70083 7.92794 5.52359 7.92278C5.16909 7.91172 4.83676 7.88974 4.83676 7.88974L4.83328 7.88802H4.83151C4.46019 7.88802 4.23668 8.00815 4.11165 8.1332C3.9866 8.25825 3.95863 8.39228 3.95863 8.39228L3.95687 8.39762L3.86819 10.1V10.1053C3.91223 10.6338 3.85891 10.8476 3.82298 10.9051C3.80501 10.9339 3.80459 10.9278 3.80386 10.9278L3.743 10.8878L3.70127 10.9487C3.67804 10.9835 3.58932 11.0306 3.46305 11.0583C3.33677 11.0859 3.17986 11.0998 3.02658 11.1052C2.72006 11.1161 2.43364 11.0948 2.43364 11.0948L2.4267 11.093L2.41975 11.0948C2.17788 11.119 1.99687 11.2373 1.8703 11.3956C1.7437 11.5538 1.66776 11.7496 1.62164 11.9398C1.52941 12.3203 1.55383 12.6858 1.55383 12.6858V12.6946C1.60216 12.9362 1.73992 13.1058 1.91203 13.2145C2.08414 13.3232 2.28981 13.3757 2.48583 13.3988C2.86709 13.4437 3.20208 13.3797 3.22135 13.3762H3.22311C3.69704 13.4198 3.86916 13.5663 3.93256 13.6839C3.99607 13.8019 3.96038 13.9048 3.96038 13.9048L3.9569 13.9152V13.9274C3.9569 14.1115 3.97985 15.5755 4.00211 17C4.02428 18.4192 4.04541 19.7841 4.04558 19.7943C4.02441 19.9849 3.9733 20.1046 3.91343 20.1786C3.85356 20.2526 3.78521 20.2846 3.7152 20.2986C3.57519 20.3266 3.43525 20.2708 3.43525 20.2708L3.42133 20.2636H3.40742C2.41152 20.2636 1.95359 20.6112 1.76245 20.9696C1.57222 21.3263 1.64354 21.6792 1.64421 21.6825C1.69306 22.3289 2.10046 22.627 2.48407 22.7432C2.86902 22.8599 3.23701 22.8127 3.23701 22.8127L3.22828 22.8145C3.70466 22.8145 3.89993 22.9402 3.98294 23.0509C4.06597 23.1616 4.04728 23.2631 4.04728 23.2631L4.0438 23.2857L4.05423 23.3083C4.05122 23.3021 4.06465 23.3537 4.06814 23.4214C4.07162 23.4889 4.07366 23.5789 4.07162 23.6822C4.06754 23.8888 4.0535 24.1502 4.03685 24.4055C4.00354 24.9163 3.9586 25.4054 3.9586 25.4054V25.4143L3.96036 25.4247C4.05343 25.9366 4.34945 26.1466 4.61592 26.2072C4.86284 26.2633 5.06633 26.2055 5.09759 26.1968H5.10108L12.2076 26.3759C13.2222 27.115 13.8774 27.1362 14.2699 26.9341C14.6456 26.7405 14.7443 26.395 14.7568 26.355L14.8802 26.3742C14.9596 26.3874 15.1151 26.3941 15.3428 26.4003C15.5704 26.4065 15.8655 26.4103 16.2052 26.4124C16.8847 26.4169 17.7415 26.4141 18.5874 26.409C19.4334 26.4037 20.2692 26.3951 20.9036 26.3882C21.535 26.381 21.9675 26.376 22.0095 26.376H22.0148C22.3066 26.4409 22.5346 26.4262 22.7103 26.3586C22.8893 26.2898 23.0105 26.1678 23.0893 26.0404C23.2462 25.787 23.2458 25.5082 23.2458 25.5048V25.5014L23.3345 23.38C23.3707 23.2406 23.5221 23.1384 23.6788 23.0757C23.8305 23.015 23.9674 22.9955 23.9779 22.994C24.9662 23.1246 25.4507 22.776 25.6628 22.3871C25.8751 21.9979 25.8284 21.582 25.828 21.5785V21.5768C25.781 20.929 25.397 20.6093 25.0351 20.4692C24.6728 20.3289 24.3257 20.3544 24.3257 20.3544L24.3309 20.3527C23.859 20.3527 23.6423 20.1886 23.5328 20.0293C23.4238 19.8707 23.4232 19.7178 23.4232 19.7163V19.7145C23.4479 19.5598 23.463 19.1761 23.4754 18.6556C23.4879 18.1291 23.4959 17.4782 23.5015 16.8437C23.5126 15.5746 23.5136 14.3728 23.5136 14.3728C23.5136 14.2636 23.5756 14.0876 23.6406 13.9468C23.6974 13.8236 23.7403 13.7521 23.7536 13.7294C24.3019 13.7853 24.7208 13.7525 25.0143 13.6477C25.3207 13.5383 25.5093 13.3596 25.6177 13.173C25.8319 12.8041 25.7363 12.4151 25.7342 12.4062C25.7748 12.0718 25.7246 11.8188 25.6072 11.6428C25.4872 11.4628 25.3088 11.3624 25.1308 11.309C24.7856 11.2054 24.4412 11.2684 24.4196 11.2725C23.8104 11.2725 23.6014 11.1036 23.5276 10.956C23.4538 10.8077 23.5085 10.658 23.5085 10.658L23.5103 10.6509L23.512 10.6438C23.6468 9.79043 23.6024 9.20188 23.5225 8.82494C23.4425 8.44799 23.3208 8.27544 23.3208 8.27544L23.3138 8.26504L23.3017 8.25613C23.2107 8.19551 23.0796 8.17244 22.9208 8.15528C22.7621 8.13808 22.5785 8.13266 22.4044 8.13266C22.0563 8.13266 21.7437 8.15528 21.7437 8.15528L21.7211 8.157L21.7054 8.16918C21.6417 8.21699 21.5727 8.21163 21.4776 8.16384C21.3825 8.1163 21.2755 8.02452 21.1785 7.92215C20.9846 7.71741 20.8308 7.47699 20.8308 7.47699L20.8134 7.45088L20.302 7.34863ZM45.4978 7.34863L45.4718 7.37126C44.0824 8.5001 42.0636 7.97985 42.0636 7.97985L42.0549 7.97813H42.0444C40.1725 7.97813 39.5422 8.0668 39.5422 8.0668L39.5144 8.07214L39.497 8.09295C39.2944 8.33614 39.046 8.33271 38.8276 8.27032C38.6175 8.21031 38.4591 8.09501 38.4468 8.08599C38.4068 8.02608 38.3416 7.99262 38.2712 7.96776C38.1923 7.93988 38.102 7.9236 38.0155 7.91211C37.8427 7.88905 37.6834 7.88781 37.6834 7.88781H37.68L37.6783 7.88953C35.7244 8.02274 34.5061 7.9109 33.7798 7.76781C33.4166 7.69632 33.1767 7.61626 33.0286 7.55567C32.8805 7.49504 32.8286 7.45655 32.8286 7.45655L32.8374 7.46546C32.809 7.43716 32.7801 7.42683 32.747 7.41676C32.7138 7.4067 32.6774 7.39904 32.6357 7.39246C32.5522 7.3793 32.4517 7.37199 32.3557 7.36635C32.1638 7.35504 31.9853 7.35414 31.9853 7.35414H31.9401L31.9193 7.39409C31.8417 7.54933 31.5989 7.8771 31.5819 7.90011C31.5704 7.90355 31.5462 7.90918 31.5037 7.914C31.4535 7.91933 31.3897 7.92415 31.3159 7.92622C31.1682 7.93065 30.9854 7.92794 30.8081 7.92278C30.4536 7.91172 30.1196 7.88974 30.1196 7.88974L30.1178 7.88802H30.116C29.7019 7.88802 29.4584 8.0051 29.3214 8.12972C29.1843 8.25434 29.1527 8.39228 29.1527 8.39228V10.1938C29.1967 10.6774 29.1412 10.869 29.1092 10.9137C29.0933 10.9361 29.0947 10.9278 29.0918 10.9276C29.089 10.9274 29.0866 10.9276 29.0866 10.9276L29.0275 10.8876L28.9857 10.9485C28.9625 10.9833 28.8738 11.0304 28.7475 11.0581C28.6212 11.0857 28.4626 11.0996 28.3093 11.105C28.0028 11.116 27.7164 11.0946 27.7164 11.0946L27.7111 11.0929L27.7042 11.0946C27.4418 11.1185 27.2441 11.2341 27.1043 11.3919C26.9645 11.5498 26.8798 11.7472 26.8278 11.9379C26.7238 12.3194 26.7478 12.6856 26.7478 12.6856V12.6891L26.7496 12.6944C26.7979 12.936 26.9357 13.1056 27.1078 13.2143C27.2799 13.323 27.4838 13.3756 27.6799 13.3986C28.0612 13.4435 28.3979 13.3796 28.4172 13.376H28.4189C28.8928 13.4196 29.0633 13.5661 29.1266 13.6838C29.1901 13.8017 29.1562 13.9046 29.1562 13.9046L29.1544 13.9063V13.9098C29.1375 13.9772 29.1327 14.0923 29.1266 14.2784C29.1204 14.4645 29.1165 14.7107 29.1144 14.9948C29.1102 15.5631 29.1123 16.2873 29.1179 16.9997C29.129 18.4193 29.1525 19.7838 29.1527 19.794C29.1315 19.9846 29.0786 20.1044 29.0188 20.1783C28.9589 20.2523 28.8906 20.2843 28.8205 20.2983C28.6805 20.3263 28.5423 20.2705 28.5423 20.2705L28.5284 20.2634H28.5128C27.5169 20.2634 27.0589 20.611 26.8678 20.9693C26.6776 21.326 26.7489 21.6789 26.7496 21.6823C26.7984 22.3286 27.2058 22.6267 27.5894 22.7429C27.9744 22.8596 28.3441 22.8125 28.3441 22.8125L28.3353 22.8142C28.7659 22.8142 28.961 22.939 29.057 23.0542C29.1529 23.1693 29.1526 23.275 29.1526 23.275V23.2924L29.1595 23.308C29.1565 23.3018 29.17 23.3534 29.1735 23.4211C29.1769 23.4886 29.1773 23.5786 29.1752 23.6819C29.1711 23.8885 29.1571 24.1499 29.1404 24.4052C29.1071 24.916 29.0639 25.4051 29.0639 25.4051L29.0622 25.414L29.0639 25.4244C29.157 25.9363 29.4548 26.1463 29.7212 26.2069C29.9679 26.263 30.1713 26.2073 30.2029 26.198H30.2064L37.3129 26.3771C38.3275 27.1162 38.981 27.1375 39.3735 26.9353C39.752 26.7403 39.8737 26.3705 39.8847 26.3354L39.8864 26.3336C39.9184 26.2723 39.9864 26.2432 40.0203 26.2432C40.0375 26.2432 40.036 26.2467 40.0325 26.2415C40.029 26.2362 40.0359 26.2398 40.0203 26.2711L39.9768 26.3597L40.0742 26.3754C40.1536 26.3886 40.3091 26.3953 40.5367 26.4015C40.7644 26.4077 41.0595 26.4116 41.3992 26.4137C42.0786 26.4182 42.9355 26.4154 43.7814 26.4103C44.6273 26.4049 45.4614 26.3964 46.0958 26.3895C46.7302 26.3823 47.1703 26.3772 47.2087 26.3772C47.5216 26.442 47.7605 26.4258 47.9407 26.3581C48.1241 26.2894 48.2445 26.1669 48.318 26.0382C48.4652 25.7806 48.438 25.4939 48.438 25.4939L48.4397 25.5043L48.5284 23.3794C48.5646 23.24 48.7142 23.1378 48.871 23.0751C49.0241 23.0139 49.1637 22.9963 49.1718 22.9952C50.1602 23.1259 50.6446 22.7755 50.8568 22.3866C51.0691 21.9974 51.0206 21.5832 51.0202 21.5798V21.5763C50.9732 20.9285 50.591 20.6088 50.229 20.4687C49.8667 20.3284 49.5179 20.3539 49.5179 20.3539L49.5248 20.3522C49.0069 20.3522 48.7945 20.1863 48.6971 20.0305C48.5997 19.8747 48.6189 19.7227 48.6189 19.7227V19.714C48.6189 19.1879 48.7075 14.3738 48.7075 14.3738V14.3721C48.7075 14.2629 48.7695 14.0869 48.8345 13.9461C48.8914 13.8228 48.936 13.7513 48.9492 13.7287C49.4976 13.7845 49.9165 13.7518 50.2099 13.647C50.5163 13.5376 50.705 13.3589 50.8133 13.1723C51.0275 12.8034 50.9319 12.4144 50.9298 12.4055C50.9704 12.0711 50.9184 11.8181 50.8011 11.6421C50.6811 11.4621 50.5027 11.3617 50.3247 11.3083C49.9781 11.2043 49.6324 11.2682 49.6135 11.2718C49.0042 11.2718 48.797 11.1029 48.7232 10.9553C48.6494 10.8077 48.704 10.6579 48.704 10.6579L48.7075 10.6437C48.8422 9.79034 48.7979 9.20179 48.7179 8.82485C48.638 8.44791 48.5162 8.27535 48.5162 8.27535L48.5075 8.26495L48.497 8.25604C48.4061 8.19542 48.275 8.17236 48.1162 8.15519C47.9575 8.13799 47.7739 8.13257 47.5998 8.13257C47.2517 8.13257 46.9373 8.15519 46.9373 8.15519L46.9165 8.15691L46.8991 8.16913C46.8354 8.21693 46.7682 8.21158 46.673 8.16379C46.5779 8.11625 46.4692 8.02446 46.3722 7.9221C46.1783 7.71736 46.0262 7.47694 46.0262 7.47694L46.0088 7.45084L45.4978 7.34863Z" fill="black"/>
<path d="M26.555 63.3382L26.3769 63.2491C26.1989 63.1601 1.89382 52.6549 0.0241699 20.6932V0.661621H52.7288V20.6041C52.7288 28.4389 50.236 48.3809 26.7322 63.1601L26.555 63.3382ZM0.647383 1.28312V20.6024C2.42796 50.8721 24.5073 61.7339 26.555 62.6242C49.6136 47.9345 52.1064 28.3481 52.1064 20.6024V1.28312H0.647383Z" fill="black"/>
<path d="M7.8585 8.1429C7.8585 8.1429 7.32431 8.14324 7.41334 8.49936L7.23598 22.0312C7.23598 22.0312 7.23563 22.6551 8.21493 22.7441C8.21493 22.7441 9.46064 22.8332 9.72773 22.7441H12.5777C12.5777 22.7441 13.1116 23.277 13.1116 22.6537C13.1116 22.6537 13.467 11.7046 13.2889 9.38983C13.2889 9.38983 13.2886 8.40912 12.4873 8.40912C12.4873 8.40912 9.28364 8.6762 9.01654 8.40912L7.8585 8.1429ZM20.2166 8.16372C20.0992 8.15331 19.9102 8.18668 19.6097 8.32021C19.6097 8.32021 19.7001 8.67737 15.6939 8.49931C15.6048 8.49931 14.091 8.49845 14.002 9.12184C14.002 9.12184 13.9133 15.5321 13.9133 15.7101L13.8229 21.052L13.7342 22.9213C13.7342 22.9213 14.0013 23.277 14.1793 23.0099C14.1793 23.0099 15.5148 22.6545 16.4051 22.8326C16.4051 22.8326 19.077 23.0986 19.7002 22.6535C19.7002 22.6535 20.145 22.8315 20.234 22.2083C20.234 22.2083 20.4117 10.3676 20.3227 10.1896C20.3227 10.1896 20.5004 8.49836 20.4114 8.3203C20.4114 8.3203 20.4122 8.18111 20.2166 8.16372ZM5.53896 8.49584C5.36421 8.50117 5.10981 8.6106 4.74258 8.94444L4.6539 10.725C4.6539 10.725 4.6539 11.7043 3.76359 11.6153C3.76359 11.6153 2.78322 11.6153 2.24908 12.0605C2.24908 12.0605 1.98268 12.9494 2.96201 12.8603C2.96201 12.8603 4.47618 12.8612 4.56521 13.4846L4.47479 19.894C4.47479 19.894 4.8323 20.9634 3.67493 20.9634C3.67493 20.9634 2.24906 20.8729 2.24906 21.7632C2.24906 21.7632 2.51719 22.4768 3.76358 22.2988C3.76358 22.2988 4.65423 22.4765 4.5652 23.2777V24.8792C4.5652 24.8792 4.47478 25.5031 5.36506 25.5922H11.9534C11.9534 25.5922 12.3098 25.5918 12.3098 25.2357C12.3098 25.2357 12.3102 24.8792 11.776 24.8792L6.34552 24.7019C6.34552 24.7019 5.45383 24.9697 5.3648 23.6343C5.3648 23.6343 5.451 12.2022 5.45348 11.6989C5.45353 11.6992 5.45524 11.7043 5.45524 11.7043C5.45524 11.7043 5.45374 11.6623 5.45348 11.6574C5.4535 11.6529 5.45524 11.5271 5.45524 11.5252C5.45357 11.5218 5.4534 11.5218 5.45176 11.5181C5.44231 11.0805 5.44063 9.53173 5.9004 8.76546C5.9004 8.76546 5.83022 8.48714 5.53896 8.49584ZM22.3972 8.52887C22.0152 8.5619 22.0147 9.03312 22.0147 9.03312C22.1927 9.21118 22.2807 9.83475 22.2807 9.83475C22.3697 11.2592 22.2807 12.8614 22.2807 14.3749C22.1917 19.4497 22.0147 24.0793 22.0147 24.0793C22.0147 25.0586 21.4808 24.7904 21.4808 24.7904H15.6035C14.9803 24.7904 14.981 25.1469 14.981 25.1469C15.07 25.6811 15.6035 25.5034 15.6035 25.5034C16.1377 25.5924 22.0146 25.5034 22.0146 25.5034C22.9049 25.5924 22.8162 24.434 22.8162 24.434C22.9052 22.3863 23.0822 22.2082 23.0822 22.2082C23.2603 22.1192 24.2403 22.1196 24.2403 22.1196C25.8429 22.2086 25.1306 21.1406 25.1306 21.1406C24.9526 20.8735 23.8839 20.8728 23.8839 20.8728C22.9046 20.9619 22.9936 19.8939 22.9936 19.8939L23.0823 13.7507C22.9042 13.2166 23.3501 12.9509 23.3501 12.9509H24.329C25.6644 13.0399 25.308 12.1493 25.308 12.1493C25.308 11.7041 24.1516 11.525 24.1516 11.525C23.0833 11.7031 23.1709 11.0799 23.1709 11.0799V9.5671C23.349 8.58776 22.7258 8.58815 22.7258 8.58815C22.5922 8.53812 22.4854 8.52122 22.3972 8.52887ZM21.14 8.72711C21.0264 8.74233 20.9015 8.83283 20.7679 9.03314V22.3874C20.7679 22.3874 21.124 23.544 21.6582 23.455C21.6582 23.455 21.7469 23.189 21.7469 22.7438L21.926 10.012C21.926 10.012 21.6323 8.661 21.14 8.72711ZM6.79098 8.85404C5.98971 8.85404 5.90067 10.3686 5.90067 10.3686L5.81025 23.0101C5.89929 23.6333 6.07804 23.5439 6.07804 23.5439C6.87931 23.0098 6.79097 22.1198 6.79097 22.1198C6.79097 22.1198 6.87965 10.1015 6.87965 9.92345C6.87965 9.74538 6.79098 8.85404 6.79098 8.85404ZM7.16136 23.0934C7.12334 23.0951 7.08067 23.1014 7.03616 23.1142C6.85811 23.1651 6.63856 23.3182 6.45363 23.688L6.45015 23.6952L6.44838 23.7023C6.44838 23.7023 6.39554 23.8682 6.43621 24.0309C6.45656 24.1123 6.50862 24.1986 6.60314 24.2431C6.69449 24.2861 6.81551 24.2876 6.97352 24.2448H11.3205L12.4873 24.5143L12.503 24.5109C12.503 24.5109 12.5864 24.4917 12.689 24.4535C12.7917 24.4154 12.9169 24.3595 13.009 24.2674C13.055 24.2214 13.0935 24.1646 13.1098 24.097C13.1262 24.0293 13.1173 23.9518 13.082 23.8762C13.0114 23.725 12.8438 23.5711 12.5256 23.3893L12.5082 23.3789H8.3124C8.3059 23.3772 8.11629 23.336 7.89855 23.2815C7.67715 23.2261 7.42393 23.1529 7.35779 23.1198L7.3543 23.1181H7.35254C7.35254 23.1181 7.2754 23.0873 7.16136 23.0934ZM20.3887 23.3282C20.1383 23.3156 19.7888 23.3664 19.7888 23.3664C19.0765 23.8116 14.8921 23.4551 14.8921 23.4551C14.625 23.4551 14.2678 23.9003 14.2678 23.9003C14.1788 24.7015 15.5149 24.3454 15.4259 24.3454H20.4112C21.2125 24.5235 21.2129 24.1681 21.2129 24.1681C21.2129 23.901 20.5904 23.3664 20.5904 23.3664C20.5459 23.3442 20.4722 23.3323 20.3887 23.3282ZM13.8021 24.3262C13.7793 24.328 13.7566 24.3342 13.7343 24.3454C13.7343 24.3454 12.9327 24.3462 12.9327 25.4148C12.9327 25.4148 13.0217 26.2146 13.823 26.2146C13.823 26.2146 14.5359 26.0369 14.5359 25.2357C14.5359 25.2357 14.1445 24.2969 13.8021 24.3262ZM32.964 8.14282C32.964 8.14282 32.4298 8.14317 32.5188 8.49929L32.3415 22.0311C32.3415 22.0311 32.3411 22.655 33.3204 22.7441C33.3204 22.7441 34.5679 22.8331 34.835 22.7441H37.6832C37.6832 22.7441 38.217 23.2772 38.217 22.565C38.217 22.565 38.5742 11.6142 38.3961 9.29936C38.3961 9.29936 38.3958 8.3204 37.5945 8.3204C37.5945 8.3204 34.3891 8.58749 34.122 8.3204L32.964 8.14282ZM45.2873 8.25237C45.1821 8.2568 45.0282 8.2976 44.8056 8.40887C44.8056 8.40887 44.8943 8.76603 40.888 8.58797C40.7989 8.58797 39.1961 8.49825 39.1961 9.2105C39.1961 9.2105 39.1074 15.6207 39.1074 15.7988L39.0187 21.1406L38.8414 23.0099C38.8414 23.0099 39.1084 23.3657 39.2865 23.0986C39.2865 23.0986 40.6219 22.7432 41.5122 22.9212C41.5122 22.9212 44.1824 23.189 44.8056 22.7439C44.8056 22.7439 45.2504 22.9219 45.3395 22.2987C45.3395 22.2987 45.5172 10.458 45.4281 10.28C45.4281 10.28 45.6076 8.58703 45.5186 8.40897C45.5186 8.40897 45.5187 8.24185 45.2873 8.25237ZM30.5559 8.49582C30.3811 8.50115 30.1267 8.61057 29.7595 8.94441V10.6346C29.7595 10.6346 29.7595 11.6139 28.8692 11.5249C28.8692 11.5249 27.8906 11.5249 27.3564 11.97C27.3564 11.97 27.0883 12.8607 28.0676 12.7717C28.0676 12.7717 29.5817 12.7725 29.6708 13.3959L29.5821 19.8053C29.5821 19.8053 29.9382 20.8729 28.6918 20.8729C28.6918 20.8729 27.2677 20.7843 27.2677 21.6746C27.2677 21.6746 27.534 22.3865 28.7805 22.2084C28.7805 22.2084 29.6708 22.3878 29.6708 23.1891V24.7906C29.6708 24.7906 29.5824 25.4145 30.3837 25.5035H36.9703C36.9703 25.5035 37.3267 25.5032 37.3267 25.1471C37.3267 25.1471 37.3271 24.7906 36.7929 24.7906L31.451 24.7019C31.451 24.7019 30.5611 24.9697 30.4721 23.6343C30.4721 23.6343 30.5611 11.7028 30.4721 11.5248V11.7039C30.4721 11.7039 30.383 9.65553 30.9172 8.76527C30.9172 8.76527 30.8471 8.48712 30.5559 8.49582ZM47.5027 8.52885C47.1207 8.56188 47.1202 9.0331 47.1202 9.0331C47.2092 9.21116 47.388 9.83472 47.388 9.83472C47.477 11.2592 47.388 12.8613 47.388 14.3749C47.2989 19.4496 47.1202 24.0792 47.1202 24.0792C47.1202 25.0585 46.5863 24.7904 46.5863 24.7904H40.7107C40.0875 24.7904 40.0865 25.1469 40.0865 25.1469C40.1755 25.6811 40.7994 25.5037 40.7994 25.4147C41.3336 25.5037 47.2088 25.4147 47.2088 25.4147C48.0991 25.5037 48.0104 24.3453 48.0104 24.3453C48.0994 22.2976 48.2782 22.1195 48.2782 22.1195C48.4562 22.0305 49.4345 22.0309 49.4345 22.0309C50.948 22.1199 50.2361 21.0519 50.2361 21.0519C50.0581 20.7848 48.9894 20.7841 48.9894 20.7841C48.0101 20.8732 48.0991 19.8052 48.0991 19.8052L48.1895 13.662C48.0114 13.1278 48.4555 12.8604 48.4555 12.8604H49.4345C50.7699 12.9494 50.4152 12.0606 50.4152 12.0606C50.4152 11.6154 49.2571 11.4363 49.2571 11.4363C48.1888 11.6144 48.2782 10.9911 48.2782 10.9911V9.56708C48.4562 8.58774 47.833 8.58813 47.833 8.58813C47.6995 8.53809 47.5909 8.52119 47.5027 8.52885ZM46.2455 8.76012C46.1319 8.76945 46.007 8.8495 45.8734 9.03311V22.3873C45.8734 22.3873 46.2295 23.544 46.7637 23.455C46.7637 23.455 46.8541 23.1889 46.8541 22.7438L47.0315 10.0119C47.0315 10.0119 46.7378 8.71973 46.2455 8.76012ZM31.8965 8.85402C31.0952 8.85402 31.0062 10.3685 31.0062 10.3685L30.9175 23.0101C31.0065 23.6333 31.1835 23.5439 31.1835 23.5439C31.9848 23.0097 31.8965 22.1198 31.8965 22.1198C31.8965 22.1198 31.9852 10.1015 31.9852 9.92342C31.9852 9.74536 31.8965 8.85402 31.8965 8.85402ZM32.406 23.0796C32.2506 23.0752 31.964 23.1446 31.7192 23.6343C31.7192 23.6343 31.5411 24.2575 32.1643 24.0795H36.5255L37.6836 24.3455C37.6836 24.3455 38.93 24.0788 37.6836 23.3666H33.5C33.5 23.3666 32.6973 23.1878 32.5193 23.0988C32.5193 23.0988 32.4766 23.0819 32.406 23.0796ZM45.543 23.2379C45.317 23.2423 45.0735 23.2779 45.0735 23.2779C44.3613 23.723 40.1768 23.3665 40.1768 23.3665C39.9097 23.3665 39.5526 23.8117 39.5526 23.8117C39.3745 24.613 40.7106 24.2568 40.7106 24.2568H45.6959C46.4972 24.4349 46.4976 24.0795 46.4976 24.0795C46.4976 23.8124 45.8733 23.2778 45.8733 23.2778C45.8065 23.2445 45.6786 23.2353 45.543 23.2379ZM38.9982 24.2377C38.9747 24.2394 38.9526 24.2457 38.9303 24.2568C38.9303 24.2568 38.1284 24.256 38.2174 25.3245C38.2174 25.3245 38.3064 26.1261 39.1077 26.1261C39.1077 26.1261 39.8207 26.0374 39.8207 25.1472C39.8207 25.1472 39.3503 24.2084 38.9982 24.2377ZM25.754 41.5286C25.754 41.5286 25.754 42.5079 25.665 43.4873C25.576 44.0215 25.8431 46.5143 25.665 47.7607C25.665 47.7607 25.665 48.2058 24.7747 47.8497C24.7747 47.8497 19.3438 47.9387 19.2548 47.7607C19.2548 47.7607 17.7413 47.8497 17.6523 47.0484C17.6523 47.0484 17.8303 41.2614 17.7413 41.0834C17.7413 41.0834 17.6523 37.9674 17.7413 37.6112C17.7413 37.6112 17.8303 34.6733 17.7413 34.3172C17.7413 34.3172 17.7413 33.6049 17.6523 33.3379C17.6523 33.3379 17.6523 32.8927 18.3645 33.1598C18.3645 33.1598 18.6316 33.605 19.967 33.4269C19.967 33.4269 20.9463 33.605 21.9257 33.4269C21.9257 33.4269 24.0624 33.2488 24.5965 33.4269C24.5965 33.4269 25.4868 33.2488 25.6648 34.2282V36.81L25.9319 37.7003L26.199 37.5223L26.288 36.899V34.1392C26.288 34.1392 26.4661 33.605 27.1783 33.5159C27.1783 33.5159 28.2467 33.4269 28.4247 33.5159C28.6028 33.605 30.9176 33.694 31.5407 33.605C32.164 33.5159 32.253 34.0501 34.2116 33.0708C34.2116 33.0708 34.7458 33.0708 34.7458 33.4269C34.7458 33.4269 34.5678 36.9881 34.7458 37.7003C34.7458 37.7003 34.7458 44.2886 34.5678 44.7337L34.6568 46.8704C34.6568 46.8704 34.7458 47.7608 33.2323 47.8497C33.2323 47.8497 34.1226 47.9388 28.3356 47.7607C28.3356 47.7607 27.4453 47.6717 26.377 48.2059C26.377 48.2059 26.1989 48.1168 26.1989 47.5827C26.1989 47.5827 26.377 45.624 26.1989 43.6654L26.1099 41.5287L25.754 41.5286ZM35.1019 47.3157C35.1019 47.3157 35.6361 48.295 35.8141 48.384C35.8141 48.384 36.2593 48.9182 36.1702 47.9388L36.2593 35.742C36.2593 35.742 36.1702 35.2969 36.2593 34.6737L35.7251 33.7834C35.7251 33.7834 35.1909 33.3382 35.1909 34.0505V46.9595L35.1019 47.3157ZM17.3851 47.8498C17.3851 47.8498 18.0083 48.4731 18.9876 48.4731L24.6856 48.5621C24.6856 48.5621 25.3088 48.6511 25.3088 48.9182C25.3088 48.9182 25.2198 49.4524 24.4185 49.2743L17.4741 49.1853L16.6728 49.2743C16.6728 49.2743 16.1386 49.1853 16.9399 48.206L17.3851 47.8498ZM16.1387 33.8724C16.1387 33.8724 15.6045 34.7627 15.6936 35.0298V49.0962C15.6936 49.0962 15.6045 50.0756 16.4058 49.8085C16.4058 49.8085 23.7954 49.6304 24.3296 49.8085C24.3296 49.8085 25.0418 49.8975 24.7747 50.2536C24.7747 50.2536 24.7747 50.5207 24.3296 50.4317C24.3296 50.4317 20.8575 50.7878 17.6523 50.6097C17.6523 50.6097 15.5156 50.6988 15.4265 50.5207C15.4265 50.5207 15.0704 50.4317 15.0704 49.2743C15.0704 49.2743 15.0704 48.117 14.9814 47.9389C14.9814 47.9389 15.0704 47.3157 14.0021 47.2267C14.0021 47.2267 12.4886 47.4937 12.4886 46.6034C12.4886 46.6034 12.6667 45.9802 14.1801 46.0693C14.1801 46.0693 15.2485 46.2473 14.9814 45.357L15.0705 39.1248C15.0705 39.1248 15.2485 38.0565 14.4472 37.9675H13.5569C13.5569 37.9675 12.3105 37.9675 12.3996 37.2552C12.3996 37.2552 12.8447 36.543 14.0911 36.632C14.0911 36.632 14.9814 36.8101 15.0704 35.7417C15.0704 35.7417 15.0704 33.605 15.5156 33.516C15.4265 33.516 16.4948 33.6053 16.1387 33.8724ZM16.851 33.7831C16.851 33.7831 17.1181 33.7831 17.1181 34.3173L17.0291 47.0483C17.0291 47.0483 17.1181 47.8495 16.4059 48.4727C16.4059 48.4727 16.0498 48.9179 16.0498 48.2056L16.2278 35.2075C16.2278 35.2075 16.2278 34.2282 16.851 33.7831ZM26.8221 48.7398C26.8221 48.7398 27.5343 48.2057 27.8904 48.2947C27.8904 48.2947 31.7186 48.5618 32.8761 48.3837C34.0335 48.2057 33.3213 48.2947 33.3213 48.2947C33.3213 48.2947 34.3006 48.2947 34.6567 47.9386C34.6567 47.9386 34.9238 47.8495 35.1019 48.1166L35.7251 48.8289C35.7251 48.8289 35.7251 49.274 35.0128 49.185C35.0128 49.185 28.1575 49.185 27.8904 49.274C27.9794 49.274 26.733 49.4521 26.8221 48.7398ZM27.2672 49.8972C27.2672 49.8972 27.8014 49.6301 28.1575 49.7192C28.5136 49.8082 33.4103 49.6301 33.4103 49.6301C33.4103 49.6301 35.547 49.8082 35.9031 49.4521L36.4373 49.274C36.4373 49.274 36.6154 49.0069 36.6154 48.6508V47.1373L36.7044 46.6921V35.0295C36.7044 35.0295 36.8825 34.1392 36.3483 33.6051C36.3483 33.6051 36.3483 33.249 36.5264 33.338C36.7044 33.427 36.6154 33.338 36.6154 33.338C36.6154 33.338 37.3276 33.1599 37.5057 33.427C37.5057 33.427 37.8618 34.4064 37.5057 35.0295C37.5057 35.0295 37.4167 36.2759 38.0399 36.2759C38.0399 36.2759 38.307 36.543 38.7521 36.365C38.7521 36.365 39.8205 36.454 39.8205 36.8101C39.8205 36.8101 39.8205 37.6114 39.1082 37.4333L38.1289 37.5223C38.1289 37.5223 37.4166 37.7004 37.5057 38.4127C37.5947 39.2139 37.5057 45.0009 37.5057 45.0009C37.5057 45.0009 37.5057 45.7132 38.574 45.6242C38.574 45.6242 39.9094 45.5351 39.9094 45.9803C39.9094 45.9803 40.2655 46.7816 39.2862 46.8706C39.2862 46.8706 37.5056 46.7816 37.6837 47.3157C37.6837 47.3157 37.5946 48.4731 37.5056 48.7402C37.5056 48.7402 37.6837 49.7195 37.5056 49.8976C37.5056 49.8976 37.4166 50.4317 36.2592 50.3427C36.2592 50.3427 29.0477 50.3427 27.8903 50.4317C27.8013 50.6098 27.0891 50.5204 27.2672 49.8972ZM26.0207 49.0963C26.0207 49.0963 26.733 49.1853 26.733 49.8976C26.733 50.6098 26.733 50.9659 26.3768 51.0549C25.9317 51.1439 25.4865 50.9659 25.3975 50.4317C25.2195 49.8975 25.3975 49.2743 26.0207 49.0963Z" fill="#E0E0E0"/>
<path d="M12.7552 13.0377L12.3991 13.839C12.3991 13.839 11.5088 17.9343 10.9747 18.7357C10.9747 18.7357 10.8856 19.626 10.1734 18.9137C10.1734 18.9137 8.48184 13.75 8.39281 13.5719L7.85862 13.2158C7.85862 13.2158 7.5025 12.7706 8.1257 12.6816H9.72822C9.72822 12.6816 10.2624 13.1267 9.55016 13.5719C9.55016 13.5719 9.63919 14.2841 10.5295 16.866C10.5295 16.866 10.7965 17.8453 11.0636 17.133L11.954 14.1061L11.6869 13.2158C11.6869 13.2158 11.4198 12.7706 11.7759 12.7706C11.7759 12.7706 12.6662 12.6816 12.7552 13.0377ZM15.159 13.75V18.2015L15.07 18.5576C15.07 18.5576 14.6248 19.0918 14.9809 19.1808C14.9809 19.1808 14.6248 19.4479 17.6518 19.4479C17.6518 19.4479 18.8091 19.626 18.5421 18.1125C18.5421 18.1125 18.4531 17.5783 18.0079 18.3796C18.0079 18.3796 17.9189 19.0918 16.3164 18.8247C16.3164 18.8247 15.9602 18.5577 15.9602 18.2015V16.3319C15.9602 16.3319 15.9602 15.8868 16.6725 15.8868C16.6725 15.8868 17.4738 16.421 17.5628 16.1538C17.5628 16.1538 17.8299 15.4416 17.5628 15.0855C17.5628 15.0855 17.2067 15.0855 17.1176 15.1746C17.1176 15.1746 16.8506 15.7087 16.1383 15.3526C16.1383 15.3526 15.7822 14.6404 16.0493 14.1062C16.0493 14.1062 15.9603 13.0379 16.6725 13.1269C16.6725 13.1269 17.5628 13.3049 17.5628 13.572C17.5628 13.572 17.7409 14.1062 18.008 13.483L17.8299 12.8598C17.8299 12.8598 17.7409 12.5927 17.4738 12.6817C17.4738 12.6817 16.0494 12.8598 15.8713 12.6817L14.7139 12.7708C14.7139 12.7708 14.5359 13.2159 15.0701 13.394C15.0701 13.483 15.159 13.5719 15.159 13.75ZM40.7106 13.0378C40.6215 12.6817 41.4228 12.6817 41.4228 12.6817L41.868 12.7708C42.135 12.7708 42.4912 12.8598 42.4912 12.8598C42.7583 13.3049 42.3131 13.572 42.3131 13.572L42.1351 14.1062V18.5578C42.2241 18.7358 42.5802 19.181 42.5802 19.181C42.5802 19.5371 42.1351 19.4481 42.1351 19.4481H40.8887C40.5325 19.4481 40.6216 19.0029 40.6216 19.0029C41.0667 18.8249 41.1558 18.0236 41.1558 18.0236V13.8392L40.7106 13.0378ZM35.0126 16.9551L34.9235 18.2905L35.2797 18.9138C35.5467 19.2699 35.1016 19.537 35.1016 19.537L33.7662 19.3589C33.4991 19.2699 33.7662 18.8247 33.7662 18.8247C34.1223 18.6467 34.1223 18.1125 34.1223 18.1125V13.8391C34.1223 13.661 33.7662 13.2159 33.7662 13.2159C33.4991 13.2159 33.5881 12.7707 33.5881 12.7707C33.6771 12.5927 34.3894 12.6817 34.3894 12.6817H36.17C37.8615 13.2159 37.5944 14.4623 37.5944 14.4623C37.6835 15.7086 36.4371 16.1538 36.4371 16.1538L36.348 16.866L37.5944 18.8247C37.7725 19.0027 37.7725 19.1808 37.7725 19.1808C37.5944 19.626 36.8822 19.1808 36.8822 19.1808L35.3687 16.777C35.1906 16.599 35.0126 16.9551 35.0126 16.9551ZM35.0126 13.572V15.7977C35.8139 16.4209 36.259 15.5306 36.259 15.5306C37.3273 14.5513 36.259 13.572 36.0809 13.3049C35.9028 13.0378 35.1016 13.3049 35.1016 13.3049L35.0126 13.572ZM22.0145 38.5002C22.0145 38.5002 22.1035 41.6162 22.0145 42.0614V42.7736C22.0145 42.7736 22.1925 43.2188 22.4596 43.3968C22.4596 43.3968 22.6377 44.0201 22.1926 43.931C22.1926 43.931 21.1242 43.842 20.8571 43.931C20.8571 43.931 20.2339 43.931 20.8571 43.2188C20.8571 43.2188 21.0352 42.9517 21.0352 42.1504C21.0352 42.1504 21.0352 38.5893 21.1242 38.4112C21.1242 38.4112 21.2133 37.9661 20.9462 37.788H20.412L19.7888 38.4112C19.7888 38.4112 19.6107 39.0344 19.3436 38.4112V38.0551L19.6997 37.0758H19.9668C19.9668 37.0758 20.3229 37.3429 20.6791 37.4319H22.6377L23.3499 37.0758C23.3499 37.0758 23.617 37.0758 23.528 37.5209C23.528 37.5209 23.617 38.5002 23.0828 38.5893C23.0828 38.5893 22.7267 38.5002 22.5487 37.966C22.5487 37.877 22.0145 37.5209 22.0145 38.5002ZM31.2733 37.3429C31.2733 37.3429 29.6707 37.1648 29.6707 38.9454C29.6707 38.9454 29.4927 40.1027 31.2733 40.904C31.2733 40.904 32.6087 41.5272 32.5197 42.3285C32.5197 42.3285 32.3416 43.7529 30.9171 43.0407C30.9171 43.0407 30.2049 42.6846 30.2939 42.3285C30.2939 42.3285 30.1159 41.8833 29.8488 41.9724C29.8488 41.9724 29.5817 42.0614 29.6707 43.4858C29.6707 43.4858 29.6707 44.02 30.2939 43.4858L30.65 43.5749C30.65 43.5749 31.8074 44.4652 32.7867 43.3968C32.7867 43.3968 33.8551 42.4175 33.0538 41.2601C33.0538 41.2601 32.5196 40.3698 31.5403 40.0137C31.5403 40.0137 30.65 39.5686 30.383 38.8564C30.383 38.8564 30.6501 37.61 31.8074 38.2331C31.8074 38.2331 32.2526 38.7673 32.5197 38.8564C32.5197 38.8564 32.8758 38.8564 32.7868 38.0551L32.6977 37.4319C32.6977 37.4319 32.6087 36.9867 31.9855 37.4319C31.9855 37.3428 31.4513 37.61 31.2733 37.3429ZM26.1985 36.4525C26.4656 36.6306 26.5546 37.0758 26.5546 37.0758C27.4449 39.3015 28.1571 42.5957 28.1571 42.5957C28.3352 43.0408 28.7803 43.3079 28.7803 43.3079C29.4926 43.575 28.7803 43.7531 28.7803 43.7531C28.5132 43.8421 27.5339 43.7531 27.5339 43.7531C26.9997 43.664 27.2668 43.486 27.2668 43.486C27.4449 43.3079 27.2668 42.4177 27.2668 42.4177C27.2668 42.0615 26.8217 41.5273 26.8217 41.5273C26.6436 41.4383 26.3765 41.7944 26.3765 41.7944C26.3765 41.7944 25.9314 41.9725 25.8424 41.7944C25.7533 41.6164 25.4862 41.4383 25.4862 41.4383C24.952 41.4383 24.774 42.6847 24.774 42.6847C25.0411 43.753 24.774 43.575 24.774 43.575C24.5069 43.9311 23.7057 43.664 23.7057 43.664C23.3495 43.575 23.6166 43.3079 23.6166 43.3079C24.0618 43.2189 24.2398 42.6847 24.2398 42.6847C24.4179 42.4176 25.8424 36.8977 25.8424 36.8977C25.7533 36.8087 25.8424 36.2745 26.1985 36.4525ZM25.4862 39.3015C25.4862 39.4795 25.1301 40.7259 25.1301 40.7259L25.3972 41.1711H26.2875C26.4656 41.1711 26.5546 40.993 26.5546 40.7259C26.5546 40.5478 26.1094 39.2124 26.1094 39.2124L25.9314 38.9453L25.4862 39.3015Z" fill="black"/>
</svg>
