<svg width="28" height="43" viewBox="0 0 28 43" fill="none" xmlns="http://www.w3.org/2000/svg">
<path d="M27.6667 28.7682V14.5975C27.6667 6.80358 21.5167 0.426758 14 0.426758C6.48337 0.426758 0.333374 6.80358 0.333374 14.5975V28.7682C0.333374 36.5621 6.48337 42.9389 14 42.9389C21.5167 42.9389 27.6667 36.5621 27.6667 28.7682ZM14 39.7898C8.15374 39.7898 3.37041 34.8301 3.37041 28.7682V14.5975C3.37041 8.53555 8.15374 3.5758 14 3.5758C19.8463 3.5758 24.6297 8.53555 24.6297 14.5975V28.7682C24.6297 34.8301 19.8463 39.7898 14 39.7898Z" fill="#E0E0E0"/>
<path d="M14 9.08667C13.1648 9.08667 12.4815 9.79521 12.4815 10.6612V15.3848C12.4815 16.2507 13.1648 16.9593 14 16.9593C14.8352 16.9593 15.5185 16.2507 15.5185 15.3848V10.6612C15.5185 9.79521 14.8352 9.08667 14 9.08667Z" fill="#E0E0E0"/>
</svg>
