<svg width="68" height="86" viewBox="0 0 68 86" fill="none" xmlns="http://www.w3.org/2000/svg">
<path d="M33.9525 0.5C34.3728 1.08965 34.734 1.7235 35.1735 2.30231C37.6806 5.79018 41.0066 8.67838 44.7914 10.705C48.0382 12.4481 51.6212 13.5591 55.2834 13.9677C59.2616 14.4198 63.3275 14.047 67.1623 12.8994C67.3649 15.2871 67.4558 17.6833 67.4575 20.0794V20.127C67.4141 25.5706 66.8345 31.0092 65.7094 36.3353C45.6646 36.3344 25.6198 36.3353 5.57502 36.3353C4.46661 36.3161 3.35403 36.3728 2.24812 36.3061C2.24061 36.3436 2.2256 36.4203 2.21893 36.4587C2.20225 36.4487 2.16972 36.4287 2.15388 36.4187C2.21226 36.2735 2.15137 36.1259 2.12802 35.9816C1.10051 31.0409 0.564238 26.0009 0.48584 20.956V18.6624C0.531711 16.7408 0.622619 14.8201 0.790257 12.9044C1.38241 13.0603 1.96956 13.2363 2.56672 13.3714C8.09459 14.675 14.0019 14.3497 19.3413 12.4073C25.3663 10.238 30.6439 5.99284 33.9525 0.5ZM28.3787 15.7759C27.2987 16.0061 26.1995 16.177 25.0919 16.1612C23.9184 16.147 22.7191 16.0444 21.6207 15.6016C21.6199 20.3396 21.6199 25.0777 21.6207 29.8157C22.2504 30.1185 22.9468 30.2478 23.6357 30.3337C24.8675 30.4629 26.1202 30.4463 27.3412 30.2202C28.699 29.9992 30.0359 29.5772 31.4246 29.6064C32.2511 29.6131 33.1076 29.8249 33.7515 30.3662C33.7482 25.6857 33.7507 21.0052 33.7498 16.3247C33.3078 15.7242 32.558 15.4448 31.8374 15.3756C30.6698 15.2688 29.5155 15.5424 28.3787 15.7759ZM34.1994 16.3272C34.1994 20.9968 34.1985 25.6657 34.2002 30.3353C34.6723 30.0209 35.1893 29.7574 35.7581 29.6765C37.3803 29.4121 38.9733 29.9467 40.5571 30.2102C41.7931 30.4438 43.0625 30.4654 44.3118 30.3345C45.0041 30.2478 45.7063 30.121 46.3385 29.8132C46.3318 25.0735 46.3493 20.3338 46.3302 15.5949C44.9665 16.1428 43.4603 16.1937 42.0099 16.1337C40.1809 16.0536 38.4362 15.3572 36.6013 15.3464C35.7231 15.3405 34.7456 15.5849 34.1994 16.3272ZM20.328 17.4498C20.3338 22.1761 20.313 26.9034 20.338 31.6297C22.438 31.9016 24.5581 32.0951 26.6774 31.9925C28.5656 31.8958 30.4404 31.6431 32.3278 31.538C32.3195 31.8357 32.3328 32.1335 32.317 32.4304C33.3562 32.8791 34.5713 32.8399 35.6189 32.4371C35.6114 32.1351 35.6214 31.8324 35.6022 31.5313C36.5188 31.6039 37.4354 31.6756 38.3519 31.7515C39.1835 31.8391 40.015 31.9283 40.8507 31.9692C43.1067 32.1176 45.3685 31.9225 47.6045 31.6272C47.6171 26.9034 47.6029 22.1795 47.612 17.4556C47.3402 17.3705 47.0641 17.3046 46.7897 17.2296C46.7897 21.5064 46.7922 25.7833 46.7889 30.0601C46.2284 30.4062 45.577 30.5597 44.9373 30.6823C43.5621 30.905 42.1492 30.9066 40.7739 30.6873C39.3294 30.4679 37.9107 30.0001 36.4354 30.0401C35.6097 30.0601 34.7215 30.3278 34.2027 31.0109C34.0501 31.0092 33.8983 31.0084 33.7465 31.0084C33.2311 30.3187 32.3345 30.0601 31.5088 30.0401C29.9801 30.0034 28.5139 30.503 27.0135 30.714C25.6974 30.9041 24.3496 30.8966 23.0369 30.6848C22.393 30.5614 21.7358 30.4104 21.1728 30.0609C21.1695 25.7816 21.1737 21.5031 21.172 17.2246C20.8901 17.2988 20.609 17.3747 20.328 17.4498ZM48.0591 19.6749C48.0624 20.4531 48.0499 21.2312 48.0658 22.0093C48.4736 22.0035 48.8814 22.0085 49.2893 22.006C49.2926 21.232 49.2834 20.4581 49.2943 19.6849C48.8831 19.6607 48.4702 19.6799 48.0591 19.6749ZM18.6491 19.6749C18.6483 20.4522 18.6483 21.2287 18.6491 22.006C19.0586 22.0068 19.4681 22.0068 19.8776 22.006C19.8793 21.2287 19.8784 20.4522 19.8784 19.6749C19.4681 19.6741 19.0586 19.6741 18.6491 19.6749ZM18.6491 26.5739C18.6483 27.3504 18.6483 28.1277 18.6491 28.905C19.0544 28.9083 19.4598 28.8992 19.8659 28.9108C19.8993 28.1352 19.8634 27.3579 19.8834 26.5814C19.4723 26.5639 19.0603 26.5772 18.6491 26.5739ZM48.0566 26.5773C48.0599 27.3504 48.0616 28.1244 48.0557 28.8975C48.4669 28.9142 48.8781 28.9017 49.2893 28.905C49.2901 28.1277 49.2901 27.3504 49.2893 26.5739C48.8781 26.5747 48.4669 26.5689 48.0566 26.5773Z" fill="black"/>
<path d="M40.4829 18.1108C41.0867 17.9715 41.7598 18.3618 41.9224 18.9631C42.1034 19.5536 41.7689 20.2433 41.1901 20.461C40.6422 20.7021 39.9299 20.4602 39.6505 19.9289C39.4712 19.5678 39.4679 19.1258 39.6355 18.7596C39.7965 18.4269 40.1276 18.1933 40.4829 18.1108ZM40.5504 18.2634C40.0892 18.4552 40.0175 19.0432 40.0475 19.4819C40.0625 19.8647 40.2477 20.3668 40.6905 20.401C41.06 20.4418 41.3244 20.0974 41.3778 19.7655C41.4453 19.3526 41.4578 18.8839 41.2218 18.5194C41.0867 18.2942 40.8006 18.1883 40.5504 18.2634Z" fill="black"/>
<path d="M23.1786 18.1701C23.6265 18.1484 24.076 18.1643 24.5247 18.1568C24.5247 18.402 24.0752 18.1843 24.1377 18.4762C24.3129 18.9466 24.528 19.402 24.7265 19.8623C24.7441 19.8707 24.7783 19.8874 24.7958 19.8957C24.9559 19.4428 25.227 19.0292 25.3345 18.5604C25.3929 18.3461 25.1511 18.3027 25.0043 18.2644C24.9234 18.2385 24.9943 18.1076 25.0735 18.1543C25.3846 18.1643 25.6965 18.1568 26.0076 18.1593C26.116 18.1868 26.0068 18.3069 25.94 18.2877C25.7857 18.3211 25.6398 18.4103 25.5797 18.5621C25.2645 19.2226 24.9692 19.8932 24.6523 20.5529C24.6223 20.5496 24.5622 20.5421 24.5322 20.5387C24.262 19.8999 23.9826 19.2643 23.6832 18.6388C23.6181 18.5196 23.5547 18.3703 23.413 18.3269C23.3296 18.2802 23.1769 18.3002 23.1786 18.1701Z" fill="black"/>
<path d="M26.2861 18.1384C27.0226 18.1426 27.7599 18.1434 28.4971 18.1626C28.5113 18.3603 28.5238 18.5588 28.5322 18.7573C28.3645 18.814 28.3328 18.5938 28.2302 18.5137C27.9875 18.1876 27.5455 18.3044 27.1994 18.2936C27.1819 18.5838 27.1794 18.8749 27.1827 19.1651C27.4796 19.2018 27.8157 19.0875 27.8716 18.7598C27.8983 18.7564 27.9525 18.7506 27.98 18.7473C27.9625 19.09 27.9684 19.432 27.9692 19.7748C27.7957 19.7973 27.8291 19.5813 27.764 19.4787C27.6381 19.2869 27.3779 19.3019 27.1769 19.3069C27.2169 19.6297 27.0818 20.0108 27.2736 20.2944C27.498 20.3919 27.764 20.3386 28.0051 20.3452C28.317 20.3477 28.4538 20.0183 28.6022 19.7973C28.6339 19.8056 28.6973 19.8215 28.729 19.8298C28.7348 20.0425 28.7231 20.2552 28.734 20.4678C28.5822 20.517 28.4221 20.4979 28.2661 20.4987C27.5914 20.4854 26.9167 20.4762 26.2419 20.4862C26.2436 20.2352 26.6072 20.4328 26.6656 20.231C26.7624 19.653 26.7082 19.0609 26.7023 18.477C26.7207 18.1885 26.262 18.3911 26.2861 18.1384Z" fill="black"/>
<path d="M29.122 18.1636C29.9444 18.1627 30.7667 18.1619 31.5891 18.1536C31.6032 18.4013 31.6024 18.6498 31.5891 18.8983C31.4039 18.91 31.4073 18.6923 31.3163 18.5839C31.1737 18.3304 30.8585 18.2895 30.5966 18.3012C30.5966 18.9159 30.5766 19.5305 30.6049 20.1444C30.6149 20.4163 31.0144 20.2453 31.0611 20.4838C30.5933 20.4897 30.1245 20.4746 29.6566 20.4938C29.6141 20.3012 29.8393 20.3804 29.9402 20.3278C30.082 20.3212 30.1362 20.1852 30.122 20.061C30.1279 19.4738 30.1429 18.8867 30.1137 18.3004C29.8576 18.2837 29.5716 18.3245 29.4223 18.5597C29.3214 18.649 29.2938 18.875 29.1329 18.855C29.0979 18.6256 29.1212 18.3938 29.122 18.1636Z" fill="black"/>
<path d="M36.0619 18.1392C36.3163 18.1459 36.5715 18.1351 36.8242 18.1684C37.3655 18.7247 37.9159 19.2777 38.4188 19.8706C38.4213 19.4019 38.473 18.9207 38.3755 18.4595C38.3304 18.2084 37.9201 18.4044 37.9184 18.1367C38.3129 18.1709 38.7107 18.1275 39.1036 18.1717C39.001 18.3502 38.6632 18.2877 38.6348 18.5579C38.5656 19.2068 38.6006 19.8681 38.6182 20.522C38.4755 20.6221 38.3938 20.4228 38.2987 20.3552C37.7791 19.8131 37.262 19.2676 36.7358 18.7314C36.79 19.2118 36.6974 19.7105 36.8233 20.1792C36.8917 20.3886 37.2404 20.2685 37.2495 20.487C36.8726 20.4811 36.4964 20.4878 36.1203 20.4836C36.1603 20.316 36.3688 20.3635 36.4789 20.2718C36.6082 20.1901 36.5665 20.0158 36.5823 19.8882C36.5781 19.4978 36.5948 19.1067 36.5665 18.7172C36.5598 18.4753 36.3313 18.326 36.1244 18.2577C36.1086 18.2276 36.0777 18.1684 36.0619 18.1392Z" fill="black"/>
<path d="M42.2228 18.2504C42.232 18.2262 42.2495 18.1761 42.2586 18.1511C42.6815 18.177 43.1052 18.147 43.528 18.1595C43.5372 18.1836 43.5564 18.2312 43.5656 18.2554C43.4254 18.2954 43.1552 18.2512 43.1719 18.4689C43.3687 18.9651 43.5722 19.4647 43.8149 19.9409C43.9767 19.4439 44.317 18.9968 44.3737 18.4731C44.372 18.2379 43.9942 18.3855 44.0059 18.1553C44.3695 18.1645 44.7332 18.1528 45.0976 18.1653C45.1018 18.2987 44.9517 18.2812 44.8683 18.3246C44.7524 18.358 44.6673 18.4564 44.6181 18.5623C44.3012 19.2245 44.0076 19.8984 43.6856 20.5589C43.6556 20.5498 43.5939 20.5314 43.5639 20.5222C43.2695 19.8467 42.9884 19.1628 42.649 18.5081C42.5722 18.3371 42.3821 18.3004 42.2228 18.2504Z" fill="black"/>
<path d="M23.5205 21.8418C24.3395 21.866 25.1586 21.8393 25.9776 21.8443C25.9784 22.0778 25.9884 22.3122 25.9784 22.5457C25.8391 22.6766 25.7982 22.4148 25.7357 22.3355C25.6098 22.0411 25.2686 21.9752 24.9826 21.9861C24.9876 22.6224 24.9442 23.263 25.0043 23.896C25.0685 24.1078 25.4505 23.9327 25.4288 24.1787C24.9709 24.1712 24.513 24.1679 24.0543 24.1812L24.0518 24.0661C24.2036 24.0278 24.5064 24.0544 24.5013 23.8243C24.5164 23.2121 24.5264 22.5983 24.4963 21.9869C24.2753 21.9911 24.0226 21.9877 23.8692 22.1762C23.7332 22.2855 23.7065 22.5107 23.5272 22.5632C23.4822 22.3255 23.4905 22.0803 23.5205 21.8418Z" fill="black"/>
<path d="M26.4206 21.9401C26.3514 21.9184 26.4081 21.7783 26.4882 21.8308C27.1821 21.8308 27.8777 21.8325 28.5716 21.8516C28.6683 22.026 28.6083 22.2653 28.6308 22.4638C28.459 22.468 28.4248 22.2653 28.313 22.1752C28.0611 21.8833 27.6341 21.9851 27.2972 21.9993C27.2955 22.2853 27.2847 22.5706 27.2905 22.8566C27.4915 22.8491 27.7275 22.8541 27.8735 22.6882C27.9285 22.6114 27.9444 22.3404 28.0887 22.4705C28.0611 22.8041 28.0862 23.1394 28.067 23.473C27.8818 23.483 27.9494 23.2436 27.8543 23.1444C27.7184 22.9759 27.4782 22.9909 27.283 22.9968C27.3322 23.3254 27.1629 23.7474 27.4148 24.0109C27.7717 24.0309 28.2638 24.1677 28.4998 23.8091C28.6191 23.704 28.6324 23.4613 28.8284 23.478C28.8193 23.709 28.8801 23.9659 28.8026 24.1811C27.9877 24.1986 27.1721 24.1552 26.3564 24.1761C26.3197 23.9175 26.7376 24.1352 26.7759 23.9083C26.8668 23.3262 26.8176 22.7299 26.8068 22.1436C26.7793 21.9576 26.5524 21.9901 26.4206 21.9401Z" fill="black"/>
<path d="M29.774 21.9075C30.0868 21.709 30.5121 21.7374 30.8224 21.9276C30.8666 21.8467 31.1018 21.7149 31.0768 21.9025C31.0509 22.1202 31.0593 22.3404 31.0876 22.5581C30.8925 22.6115 30.8916 22.3729 30.8099 22.2595C30.6639 21.8942 30.0701 21.8233 29.8574 22.1552C29.7298 22.3863 29.9584 22.6056 30.1702 22.6582C30.4805 22.7874 30.8407 22.83 31.0976 23.0618C31.3954 23.3454 31.3161 23.8908 30.9617 24.0918C30.5997 24.3387 30.1435 24.237 29.7682 24.081C29.6706 24.146 29.5664 24.1711 29.4554 24.1552C29.493 23.895 29.4671 23.6323 29.4913 23.3721C29.6856 23.3721 29.6898 23.5948 29.7757 23.719C29.9425 24.086 30.513 24.2236 30.8099 23.9417C30.9884 23.7807 30.9233 23.4672 30.7131 23.3654C30.3962 23.1969 30.0084 23.1777 29.7248 22.9426C29.3962 22.6957 29.4238 22.1227 29.774 21.9075Z" fill="black"/>
<path d="M35.8599 21.8425C36.6798 21.865 37.5004 21.8384 38.3203 21.845C38.3219 22.0811 38.3303 22.3171 38.3211 22.5531C38.2911 22.5581 38.2319 22.5698 38.2027 22.5756C38.1101 22.4138 38.0484 22.2212 37.8907 22.1094C37.7281 21.9876 37.5146 22.0002 37.3228 21.986C37.3294 22.6215 37.2877 23.2604 37.3436 23.8925C37.407 24.1069 37.7823 23.9334 37.774 24.1778C37.3144 24.1728 36.8557 24.1669 36.397 24.182L36.3903 24.066C36.543 24.0268 36.8466 24.056 36.8432 23.8242C36.8582 23.212 36.8666 22.599 36.8382 21.9877C36.618 21.9918 36.3653 21.9868 36.2119 22.1753C36.0751 22.2854 36.0492 22.5072 35.8716 22.564C35.8207 22.3271 35.8366 22.0819 35.8599 21.8425Z" fill="black"/>
<path d="M39.6471 21.9467C39.6821 21.8382 39.8055 21.7081 39.9115 21.8324C40.2417 22.513 40.4719 23.2411 40.833 23.9066C40.8914 24.0926 41.2309 23.9808 41.2034 24.1918C40.7772 24.1777 40.351 24.1777 39.9248 24.186C39.8989 23.9792 40.1917 24.1193 40.2701 23.9792C40.2826 23.7481 40.1458 23.5438 40.0783 23.3295C39.7897 23.3011 39.4986 23.3095 39.21 23.3253C39.1367 23.5305 39.0349 23.734 39.0407 23.9575C39.1392 24.0884 39.4277 23.9758 39.406 24.1852C39.0574 24.1752 38.7088 24.1777 38.361 24.1827C38.3527 23.985 38.6387 24.0701 38.7138 23.9208C39.0975 23.2994 39.2918 22.5839 39.6471 21.9467ZM39.2834 23.1593C39.5211 23.1577 39.7588 23.1568 39.9974 23.1577C39.8839 22.8841 39.7663 22.613 39.6579 22.3378C39.4978 22.593 39.3869 22.8774 39.2834 23.1593Z" fill="black"/>
<path d="M41.4077 21.8516C41.7622 21.8341 42.1183 21.8499 42.4744 21.8482C42.7313 22.3904 42.9757 22.9383 43.2242 23.4846C43.4736 22.9391 43.7138 22.3878 44.0065 21.8633C44.3284 21.8457 44.6562 21.8199 44.9773 21.8616C44.9706 21.8833 44.9573 21.925 44.9515 21.9467C44.7863 21.975 44.5503 22.0175 44.5486 22.2327C44.537 22.7573 44.5153 23.2861 44.5645 23.809C44.577 24.0192 44.7863 24.0801 44.9648 24.0767L44.9615 24.1868C44.5361 24.1818 44.1116 24.181 43.6871 24.1793L43.6812 24.0684C43.8255 24.05 44.0482 24.0626 44.0699 23.8666C44.0983 23.2636 44.0741 22.6581 44.0824 22.0542C43.7355 22.7431 43.4411 23.4662 43.0899 24.1476C42.6929 23.4796 42.4394 22.7281 42.0507 22.0551C42.0516 22.6005 42.0449 23.1476 42.0733 23.6923C42.0891 23.9308 42.3151 24.0759 42.5378 24.0801L42.5336 24.1835C42.16 24.1835 41.7855 24.1668 41.4119 24.181C41.4002 23.9441 41.8364 24.0826 41.8447 23.8182C41.8998 23.2894 41.8764 22.7523 41.8606 22.2219C41.8556 21.9917 41.5895 21.9875 41.4244 21.9617C41.4202 21.9341 41.4119 21.8791 41.4077 21.8516Z" fill="black"/>
<path d="M24.5865 25.5231C25.3171 25.5205 26.0486 25.5322 26.7792 25.5397C26.8117 25.7391 26.8125 25.9409 26.8225 26.1427C26.6541 26.1828 26.6174 25.9793 26.5165 25.89C26.2671 25.5798 25.8242 25.664 25.4789 25.699C25.4814 25.9818 25.4689 26.2645 25.4714 26.5472C25.7416 26.5664 26.1069 26.503 26.137 26.1719C26.1703 26.1594 26.2379 26.1352 26.2721 26.1227C26.2554 26.4672 26.2546 26.8124 26.2662 27.1577C26.0602 27.1878 26.1311 26.9534 26.0461 26.8458C25.9126 26.6715 25.6649 26.6798 25.4681 26.6907C25.5181 27.0201 25.3422 27.458 25.6115 27.7098C25.9693 27.7174 26.4572 27.86 26.6899 27.4955C26.8084 27.4029 26.8259 27.0927 27.026 27.2053C27.0135 27.4296 27.0369 27.6573 27.001 27.8808C26.1812 27.8842 25.3622 27.8525 24.5432 27.8683C24.5048 27.6173 24.9652 27.8274 24.9693 27.5664C25.0411 27.0143 25.001 26.4538 24.9969 25.8984C25.0161 25.6648 24.7425 25.6623 24.5824 25.6365L24.5865 25.5231Z" fill="black"/>
<path d="M27.453 25.5232C27.7107 25.5507 28.0001 25.4798 28.2386 25.5841C28.7716 26.1279 29.2887 26.6875 29.8124 27.2405C29.7791 26.7667 29.8717 26.2755 29.7432 25.8143C29.684 25.5999 29.2737 25.7751 29.3079 25.519C29.6865 25.5407 30.066 25.5391 30.4455 25.5316L30.4563 25.6308C30.2211 25.645 29.9901 25.8151 29.9901 26.067C29.9734 26.6608 29.9676 27.2555 29.9951 27.8493C29.9934 27.9369 29.8992 27.9661 29.845 27.9027C29.2578 27.3197 28.7057 26.7025 28.1152 26.1237C28.1577 26.5732 28.1044 27.0295 28.1736 27.4773C28.2095 27.7008 28.4697 27.7284 28.6457 27.7826C28.6323 27.8043 28.6065 27.8476 28.5931 27.8693C28.2345 27.871 27.875 27.8651 27.5164 27.8735C27.5106 27.655 27.8767 27.7742 27.9317 27.5674C27.9926 27.1003 27.9559 26.6233 27.9509 26.1529C27.9693 25.8702 27.7065 25.705 27.4739 25.6275L27.453 25.5232Z" fill="black"/>
<path d="M35.7889 26.2319C35.8031 25.9992 35.7539 25.759 35.8198 25.533C36.6354 25.5705 37.4519 25.5255 38.2676 25.5438C38.2643 25.7773 38.2768 26.0117 38.2609 26.2452L38.1667 26.2969C38.0691 26.1335 38.0041 25.9408 37.8539 25.8165C37.688 25.6848 37.4653 25.6898 37.266 25.6848C37.2668 26.2869 37.2526 26.8899 37.271 27.4921C37.2618 27.7214 37.5303 27.7289 37.6921 27.7514C37.6996 27.779 37.7147 27.8332 37.723 27.8607C37.2676 27.8799 36.8114 27.8549 36.3569 27.8774C36.2743 27.6647 36.6396 27.7565 36.7589 27.6622C36.8356 27.0083 36.7931 26.3445 36.7864 25.6873C36.5412 25.6731 36.266 25.6989 36.1125 25.9174C35.9957 26.0159 35.9766 26.2611 35.7889 26.2319Z" fill="black"/>
<path d="M38.4096 25.5381C38.8391 25.5523 39.2686 25.539 39.6973 25.5373C39.7115 25.5582 39.739 25.599 39.7532 25.6199C39.6181 25.6474 39.4863 25.6841 39.3553 25.7275C39.3578 25.7733 39.3628 25.8651 39.3653 25.911C39.5555 26.3863 39.7749 26.8501 39.97 27.3238C40.1218 27.0511 40.2269 26.7558 40.3595 26.4731C40.4479 26.2637 40.5755 26.0527 40.5463 25.8167C40.4963 25.6207 40.1593 25.7617 40.1818 25.5365C40.5263 25.5415 40.8716 25.5507 41.216 25.5356C41.2294 25.5623 41.2552 25.6165 41.2686 25.6432C41.0851 25.6766 40.8824 25.7425 40.8032 25.9293C40.4838 26.5898 40.1919 27.2646 39.8691 27.9243C39.7982 27.9735 39.7498 27.956 39.7248 27.8717C39.4671 27.2654 39.2002 26.6641 38.9191 26.0686C38.8549 25.9468 38.8007 25.8075 38.6798 25.7316C38.5914 25.6549 38.3612 25.7191 38.4096 25.5381Z" fill="black"/>
<path d="M41.4603 25.5344C41.8165 25.5428 42.1734 25.5428 42.5295 25.5453C42.738 25.9956 42.944 26.4477 43.1484 26.9014C43.1959 26.9848 43.2093 27.1065 43.3077 27.1508C43.5245 26.5953 43.7731 26.049 44.0833 25.5403C44.3961 25.5486 44.7088 25.5286 45.0224 25.5378C45.0208 25.7454 44.6796 25.6212 44.6263 25.8255C44.552 26.1741 44.6062 26.5377 44.5896 26.8922C44.6029 27.1457 44.552 27.4268 44.678 27.6595C44.7464 27.8155 45.0491 27.6662 45.0249 27.8772C44.5979 27.8672 44.1634 27.8947 43.7422 27.8538C43.7347 27.8338 43.7197 27.7938 43.7122 27.7738C43.8773 27.7504 44.1317 27.7471 44.1275 27.5177C44.1442 26.9256 44.1258 26.3326 44.1375 25.7404C43.8156 26.4343 43.4645 27.1157 43.1859 27.8288C43.1601 27.8146 43.1067 27.7871 43.08 27.7729C42.7506 27.099 42.4578 26.4043 42.1059 25.7438C42.0983 26.2992 42.0958 26.8572 42.13 27.4118C42.1534 27.6403 42.3727 27.7554 42.5804 27.7771C42.5846 27.8021 42.5938 27.8522 42.5988 27.8772C42.2168 27.8755 41.8365 27.8638 41.4553 27.8688C41.4562 27.6353 41.8732 27.7788 41.8923 27.5252C41.9466 26.9706 41.9424 26.4018 41.8974 25.8472C41.8607 25.5911 41.4286 25.7938 41.4603 25.5344Z" fill="black"/>
<path d="M20.2071 50.6248C24.785 46.2504 29.3654 41.8793 33.9375 37.499C41.5346 44.7491 49.1116 52.0201 56.707 59.2711C56.7988 59.3662 56.8872 59.4662 56.9764 59.5655C54.8197 63.3469 52.3893 66.9732 49.6696 70.3727C49.6362 70.3468 49.5678 70.2951 49.5337 70.2693C44.3335 65.2485 39.1418 60.2177 33.9408 55.1977C29.7366 59.2736 25.5256 63.3436 21.3155 67.4144C20.2996 68.3844 19.313 69.3869 18.2771 70.336C17.6049 69.5262 16.9811 68.678 16.3506 67.8364C14.3906 65.1609 12.5733 62.3795 10.9545 59.4846C14.0228 56.5155 17.1262 53.5814 20.2071 50.6248Z" fill="black"/>
<path d="M28.3788 15.7757C29.5156 15.5422 30.6698 15.2686 31.8375 15.3754C32.5581 15.4446 33.3078 15.724 33.7499 16.3245C33.7507 21.005 33.7482 25.6855 33.7515 30.366C33.1077 29.8247 32.2511 29.6129 31.4246 29.6062C30.036 29.577 28.6991 29.999 27.3413 30.2201C26.1203 30.4461 24.8676 30.4628 23.6357 30.3335C22.9468 30.2476 22.2504 30.1183 21.6207 29.8156C21.6199 25.0775 21.6199 20.3394 21.6207 15.6014C22.7191 16.0442 23.9185 16.1468 25.0919 16.161C26.1995 16.1769 27.2987 16.0059 28.3788 15.7757ZM23.1787 18.1702C23.177 18.3003 23.3296 18.2802 23.413 18.327C23.5548 18.3703 23.6182 18.5196 23.6833 18.6389C23.9827 19.2644 24.2621 19.8999 24.5323 20.5388C24.5623 20.5421 24.6224 20.5496 24.6524 20.5529C24.9693 19.8932 25.2646 19.2227 25.5798 18.5621C25.6399 18.4104 25.7858 18.3211 25.9401 18.2878C26.0068 18.3069 26.1161 18.1868 26.0077 18.1593C25.6966 18.1568 25.3847 18.1643 25.0736 18.1543C24.9943 18.1076 24.9235 18.2385 25.0044 18.2644C25.1511 18.3028 25.393 18.3461 25.3346 18.5605C25.227 19.0292 24.956 19.4429 24.7959 19.8957C24.7783 19.8874 24.7441 19.8707 24.7266 19.8624C24.5281 19.402 24.313 18.9466 24.1378 18.4762C24.0753 18.1843 24.5248 18.402 24.5248 18.1568C24.0761 18.1643 23.6266 18.1485 23.1787 18.1702ZM26.2862 18.1385C26.2621 18.3912 26.7208 18.1885 26.7024 18.4771C26.7083 19.0609 26.7625 19.653 26.6657 20.231C26.6073 20.4328 26.2437 20.2352 26.242 20.4862C26.9168 20.4762 27.5915 20.4854 28.2662 20.4987C28.4222 20.4979 28.5823 20.5171 28.7341 20.4679C28.7232 20.2552 28.7349 20.0425 28.7291 19.8299C28.6974 19.8215 28.634 19.8057 28.6023 19.7973C28.4539 20.0183 28.3171 20.3478 28.0052 20.3453C27.7641 20.3386 27.4981 20.392 27.2737 20.2944C27.0819 20.0108 27.217 19.6297 27.177 19.3069C27.378 19.3019 27.6382 19.2869 27.7641 19.4787C27.8292 19.5813 27.7958 19.7973 27.9693 19.7748C27.9685 19.432 27.9626 19.0901 27.9801 18.7473C27.9526 18.7506 27.8984 18.7565 27.8717 18.7598C27.8158 19.0876 27.4797 19.2018 27.1828 19.1651C27.1795 18.8749 27.182 18.5838 27.1995 18.2936C27.5456 18.3044 27.9876 18.1877 28.2303 18.5138C28.3329 18.5938 28.3646 18.814 28.5323 18.7573C28.5239 18.5588 28.5114 18.3603 28.4972 18.1626C27.76 18.1435 27.0227 18.1426 26.2862 18.1385ZM29.1219 18.1635C29.1211 18.3937 29.0977 18.6255 29.1327 18.8549C29.2937 18.8749 29.3212 18.6489 29.4222 18.5596C29.5714 18.3244 29.8575 18.2836 30.1136 18.3003C30.1427 18.8866 30.1277 19.4737 30.1219 20.0609C30.1361 20.1851 30.0819 20.3211 29.9401 20.3278C29.8392 20.3803 29.614 20.3011 29.6565 20.4937C30.1244 20.4745 30.5931 20.4896 31.061 20.4837C31.0143 20.2452 30.6148 20.4162 30.6048 20.1443C30.5764 19.5304 30.5964 18.9158 30.5964 18.3011C30.8583 18.2894 31.1736 18.3303 31.3162 18.5838C31.4071 18.6923 31.4038 18.9099 31.5889 18.8983C31.6023 18.6497 31.6031 18.4012 31.5889 18.1535C30.7666 18.1618 29.9442 18.1626 29.1219 18.1635ZM23.5206 21.8415C23.4906 22.08 23.4823 22.3252 23.5273 22.5629C23.7066 22.5104 23.7333 22.2852 23.8693 22.1759C24.0227 21.9875 24.2754 21.9908 24.4964 21.9866C24.5265 22.598 24.5165 23.2118 24.5014 23.824C24.5064 24.0542 24.2037 24.0275 24.0519 24.0658L24.0544 24.1809C24.5131 24.1676 24.971 24.1709 25.4289 24.1784C25.4506 23.9324 25.0686 24.1075 25.0044 23.8957C24.9443 23.2627 24.9877 22.6221 24.9827 21.9858C25.2687 21.9749 25.6099 22.0408 25.7358 22.3352C25.7983 22.4145 25.8392 22.6764 25.9785 22.5454C25.9885 22.3119 25.9785 22.0775 25.9777 21.844C25.1586 21.839 24.3396 21.8657 23.5206 21.8415ZM26.4205 21.9399C26.5523 21.99 26.7791 21.9574 26.8067 22.1434C26.8175 22.7297 26.8667 23.3261 26.7758 23.9082C26.7374 24.1351 26.3196 23.9174 26.3563 24.1759C27.172 24.1551 27.9876 24.1984 28.8025 24.1809C28.88 23.9657 28.8192 23.7089 28.8283 23.4778C28.6323 23.4612 28.619 23.7039 28.4997 23.809C28.2637 24.1676 27.7716 24.0308 27.4147 24.0108C27.1628 23.7472 27.3321 23.3252 27.2829 22.9966C27.4781 22.9908 27.7183 22.9758 27.8542 23.1442C27.9493 23.2435 27.8817 23.4829 28.0669 23.4728C28.0861 23.1392 28.061 22.804 28.0886 22.4704C27.9443 22.3402 27.9284 22.6113 27.8734 22.688C27.7274 22.854 27.4914 22.849 27.2904 22.8565C27.2846 22.5704 27.2954 22.2852 27.2971 21.9991C27.634 21.985 28.061 21.8832 28.3129 22.1751C28.4247 22.2652 28.4589 22.4679 28.6307 22.4637C28.6081 22.2652 28.6682 22.0258 28.5715 21.8515C27.8775 21.8323 27.182 21.8307 26.4881 21.8307C26.408 21.7781 26.3513 21.9182 26.4205 21.9399ZM29.7741 21.9074C29.4238 22.1226 29.3963 22.6955 29.7249 22.9424C30.0085 23.1776 30.3963 23.1968 30.7132 23.3653C30.9234 23.467 30.9884 23.7806 30.81 23.9416C30.513 24.2235 29.9426 24.0858 29.7758 23.7189C29.6899 23.5946 29.6857 23.3719 29.4914 23.3719C29.4672 23.6321 29.493 23.8949 29.4555 24.1551C29.5664 24.1709 29.6707 24.1459 29.7683 24.0808C30.1436 24.2368 30.5998 24.3386 30.9617 24.0917C31.3162 23.8907 31.3954 23.3452 31.0977 23.0617C30.8408 22.8298 30.4805 22.7873 30.1703 22.658C29.9584 22.6055 29.7299 22.3861 29.8575 22.1551C30.0702 21.8232 30.664 21.894 30.81 22.2593C30.8917 22.3728 30.8925 22.6113 31.0877 22.5579C31.0593 22.3402 31.051 22.1201 31.0768 21.9024C31.1019 21.7147 30.8667 21.8465 30.8225 21.9274C30.5122 21.7373 30.0869 21.7089 29.7741 21.9074ZM24.5865 25.5229L24.5823 25.6363C24.7425 25.6621 25.016 25.6646 24.9969 25.8982C25.001 26.4536 25.0411 27.0141 24.9693 27.5662C24.9652 27.8273 24.5048 27.6171 24.5431 27.8681C25.3621 27.8523 26.1812 27.884 27.001 27.8806C27.0369 27.6571 27.0135 27.4294 27.026 27.2051C26.8259 27.0925 26.8083 27.4027 26.6899 27.4953C26.4572 27.8598 25.9693 27.7172 25.6115 27.7097C25.3421 27.4578 25.5181 27.0199 25.4681 26.6905C25.6649 26.6796 25.9126 26.6713 26.046 26.8456C26.1311 26.9532 26.0602 27.1876 26.2662 27.1575C26.2545 26.8123 26.2554 26.467 26.2721 26.1225C26.2379 26.135 26.1703 26.1592 26.137 26.1717C26.1069 26.5028 25.7416 26.5662 25.4714 26.547C25.4689 26.2643 25.4814 25.9816 25.4789 25.6988C25.8242 25.6638 26.2671 25.5796 26.5164 25.8898C26.6173 25.9791 26.654 26.1826 26.8225 26.1425C26.8125 25.9407 26.8117 25.7389 26.7791 25.5395C26.0485 25.532 25.3171 25.5204 24.5865 25.5229ZM27.453 25.5229L27.4739 25.6271C27.7066 25.7047 27.9693 25.8698 27.9509 26.1525C27.9559 26.6229 27.9926 27.1 27.9318 27.567C27.8767 27.7739 27.5106 27.6546 27.5164 27.8731C27.875 27.8648 28.2345 27.8706 28.5931 27.869C28.6065 27.8473 28.6323 27.8039 28.6457 27.7822C28.4697 27.728 28.2095 27.7005 28.1736 27.477C28.1044 27.0291 28.1578 26.5729 28.1152 26.1234C28.7057 26.7022 29.2578 27.3193 29.845 27.9023C29.8992 27.9657 29.9935 27.9365 29.9951 27.8489C29.9676 27.2551 29.9734 26.6605 29.9901 26.0666C29.9901 25.8148 30.2211 25.6446 30.4563 25.6305L30.4455 25.5312C30.066 25.5387 29.6865 25.5404 29.3079 25.5187C29.2737 25.7747 29.684 25.5996 29.7432 25.8139C29.8717 26.2751 29.7791 26.7664 29.8125 27.2401C29.2887 26.6872 28.7716 26.1275 28.2387 25.5837C28.0001 25.4795 27.7107 25.5504 27.453 25.5229Z" fill="#E0E0E0"/>
<path d="M34.1994 16.3273C34.7457 15.5851 35.7232 15.3407 36.6014 15.3465C38.4362 15.3574 40.181 16.0538 42.01 16.1339C43.4604 16.1939 44.9666 16.143 46.3302 15.5951C46.3494 20.334 46.3319 25.0737 46.3386 29.8134C45.7064 30.1212 45.0041 30.2479 44.3119 30.3347C43.0625 30.4656 41.7932 30.4439 40.5571 30.2104C38.9733 29.9469 37.3804 29.4123 35.7582 29.6766C35.1894 29.7575 34.6723 30.0211 34.2003 30.3355C34.1986 25.6658 34.1994 20.997 34.1994 16.3273ZM40.4829 18.1113C40.1276 18.1939 39.7965 18.4274 39.6356 18.7602C39.4679 19.1263 39.4713 19.5683 39.6506 19.9295C39.93 20.4607 40.6422 20.7026 41.1902 20.4616C41.769 20.2439 42.1034 19.5542 41.9224 18.9637C41.7598 18.3623 41.0868 17.972 40.4829 18.1113ZM36.0618 18.1397C36.0776 18.1689 36.1085 18.2281 36.1243 18.2581C36.3312 18.3265 36.5597 18.4758 36.5664 18.7176C36.5947 19.1071 36.578 19.4983 36.5822 19.8886C36.5664 20.0162 36.6081 20.1905 36.4788 20.2723C36.3687 20.364 36.1602 20.3165 36.1202 20.4841C36.4963 20.4883 36.8725 20.4816 37.2494 20.4874C37.2403 20.2689 36.8916 20.389 36.8232 20.1797C36.6973 19.711 36.7899 19.2122 36.7357 18.7318C37.2619 19.2681 37.779 19.8135 38.2986 20.3557C38.3937 20.4232 38.4754 20.6225 38.6181 20.5225C38.6005 19.8686 38.5655 19.2072 38.6347 18.5583C38.6631 18.2881 39.0009 18.3507 39.1035 18.1722C38.7106 18.128 38.3128 18.1714 37.9183 18.1372C37.92 18.4049 38.3303 18.2089 38.3754 18.4599C38.4729 18.9211 38.4212 19.4024 38.4187 19.8711C37.9158 19.2781 37.3654 18.7251 36.8241 18.1689C36.5714 18.1355 36.3162 18.1463 36.0618 18.1397ZM42.2227 18.2506C42.382 18.3006 42.5721 18.3373 42.6489 18.5083C42.9883 19.163 43.2694 19.8469 43.5638 20.5225C43.5938 20.5316 43.6555 20.55 43.6856 20.5592C44.0075 19.8986 44.3011 19.2247 44.618 18.5625C44.6672 18.4566 44.7523 18.3582 44.8682 18.3248C44.9516 18.2814 45.1017 18.299 45.0975 18.1655C44.7331 18.153 44.3694 18.1647 44.0058 18.1555C43.9941 18.3857 44.3719 18.2381 44.3736 18.4733C44.3169 18.997 43.9766 19.4441 43.8148 19.9411C43.5721 19.4649 43.3686 18.9653 43.1718 18.4691C43.1551 18.2514 43.4253 18.2956 43.5655 18.2556C43.5563 18.2314 43.5371 18.1839 43.5279 18.1597C43.1051 18.1472 42.6814 18.1772 42.2585 18.1513C42.2494 18.1764 42.2319 18.2264 42.2227 18.2506ZM35.86 21.8427C35.8366 22.0821 35.8208 22.3273 35.8716 22.5641C36.0493 22.5074 36.0751 22.2856 36.2119 22.1755C36.3654 21.987 36.6181 21.992 36.8383 21.9878C36.8666 22.5992 36.8583 23.2122 36.8433 23.8243C36.8466 24.0562 36.543 24.027 36.3904 24.0662L36.3971 24.1821C36.8558 24.1671 37.3145 24.173 37.774 24.178C37.7824 23.9336 37.4071 24.1071 37.3437 23.8927C37.2878 23.2605 37.3295 22.6217 37.3228 21.9862C37.5146 22.0003 37.7282 21.9878 37.8908 22.1096C38.0484 22.2214 38.1101 22.414 38.2027 22.5758C38.2319 22.57 38.2911 22.5583 38.3211 22.5533C38.3303 22.3173 38.322 22.0812 38.3203 21.8452C37.5005 21.8385 36.6798 21.8652 35.86 21.8427ZM39.6472 21.947C39.2919 22.5841 39.0976 23.2997 38.714 23.9211C38.6389 24.0704 38.3528 23.9853 38.3612 24.183C38.709 24.178 39.0576 24.1755 39.4062 24.1855C39.4279 23.9761 39.1393 24.0887 39.0409 23.9578C39.0351 23.7343 39.1368 23.5308 39.2102 23.3256C39.4988 23.3097 39.7899 23.3014 40.0784 23.3298C40.146 23.5441 40.2828 23.7484 40.2702 23.9795C40.1918 24.1196 39.8991 23.9795 39.925 24.1863C40.3511 24.178 40.7773 24.178 41.2035 24.1921C41.231 23.9811 40.8916 24.0929 40.8332 23.9069C40.4721 23.2414 40.2419 22.5133 39.9116 21.8327C39.8057 21.7084 39.6823 21.8385 39.6472 21.947ZM41.4078 21.8519C41.412 21.8794 41.4204 21.9344 41.4245 21.962C41.5897 21.9878 41.8557 21.992 41.8607 22.2222C41.8766 22.7526 41.8999 23.2897 41.8449 23.8185C41.8365 24.0829 41.4003 23.9444 41.412 24.1813C41.7857 24.1671 42.1601 24.1838 42.5338 24.1838L42.5379 24.0804C42.3153 24.0762 42.0892 23.9311 42.0734 23.6926C42.045 23.1479 42.0517 22.6008 42.0509 22.0554C42.4395 22.7284 42.6931 23.4799 43.0901 24.1479C43.4412 23.4665 43.7356 22.7434 44.0825 22.0545C44.0742 22.6584 44.0984 23.2639 44.07 23.8669C44.0484 24.0629 43.8257 24.0504 43.6814 24.0687L43.6872 24.1796C44.1117 24.1813 44.5363 24.1821 44.9616 24.1871L44.9649 24.077C44.7865 24.0804 44.5771 24.0195 44.5646 23.8093C44.5154 23.2864 44.5371 22.7576 44.5488 22.233C44.5504 22.0179 44.7865 21.9753 44.9516 21.947C44.9574 21.9253 44.9708 21.8836 44.9775 21.8619C44.6564 21.8202 44.3286 21.846 44.0067 21.8636C43.7139 22.3882 43.4737 22.9394 43.2243 23.4849C42.9758 22.9386 42.7314 22.3907 42.4746 21.8485C42.1184 21.8502 41.7623 21.8344 41.4078 21.8519ZM35.7891 26.2321C35.9767 26.2613 35.9959 26.0161 36.1127 25.9177C36.2661 25.6992 36.5414 25.6734 36.7866 25.6875C36.7932 26.3447 36.8358 27.0086 36.759 27.6625C36.6398 27.7567 36.2745 27.665 36.357 27.8777C36.8116 27.8551 37.2678 27.8802 37.7232 27.861C37.7148 27.8335 37.6998 27.7792 37.6923 27.7517C37.5305 27.7292 37.2619 27.7217 37.2711 27.4923C37.2528 26.8902 37.2669 26.2872 37.2661 25.685C37.4654 25.69 37.6881 25.685 37.8541 25.8168C38.0042 25.9411 38.0693 26.1337 38.1669 26.2972L38.2611 26.2455C38.2769 26.012 38.2644 25.7776 38.2678 25.5441C37.4521 25.5257 36.6356 25.5708 35.8199 25.5332C35.754 25.7593 35.8032 25.9995 35.7891 26.2321ZM38.4096 25.5382C38.3612 25.7192 38.5914 25.655 38.6798 25.7317C38.8007 25.8076 38.8549 25.9469 38.9191 26.0687C39.2002 26.6642 39.4671 27.2655 39.7248 27.8718C39.7498 27.9561 39.7982 27.9736 39.8691 27.9244C40.1918 27.2647 40.4838 26.5899 40.8032 25.9294C40.8824 25.7426 41.0851 25.6767 41.2686 25.6433C41.2552 25.6166 41.2294 25.5624 41.216 25.5357C40.8716 25.5508 40.5263 25.5416 40.1818 25.5366C40.1593 25.7618 40.4963 25.6208 40.5463 25.8168C40.5755 26.0528 40.4479 26.2638 40.3595 26.4732C40.2269 26.7559 40.1218 27.0512 39.97 27.3239C39.7748 26.8502 39.5555 26.3864 39.3653 25.911C39.3628 25.8652 39.3578 25.7734 39.3553 25.7276C39.4863 25.6842 39.618 25.6475 39.7532 25.62C39.739 25.5991 39.7115 25.5583 39.6973 25.5374C39.2686 25.5391 38.8391 25.5524 38.4096 25.5382ZM41.4604 25.5349C41.4287 25.7943 41.8607 25.5916 41.8974 25.8477C41.9425 26.4023 41.9466 26.9711 41.8924 27.5257C41.8732 27.7793 41.4562 27.6358 41.4554 27.8693C41.8365 27.8643 42.2168 27.876 42.5988 27.8777C42.5938 27.8526 42.5846 27.8026 42.5805 27.7776C42.3728 27.7559 42.1535 27.6408 42.1301 27.4123C42.0959 26.8577 42.0984 26.2997 42.1059 25.7442C42.4579 26.4048 42.7506 27.0995 43.0801 27.7734C43.1067 27.7876 43.1601 27.8151 43.186 27.8293C43.4645 27.1162 43.8157 26.4348 44.1376 25.7409C44.1259 26.3331 44.1443 26.926 44.1276 27.5182C44.1318 27.7476 43.8774 27.7509 43.7122 27.7742C43.7197 27.7943 43.7348 27.8343 43.7423 27.8543C44.1634 27.8952 44.598 27.8677 45.025 27.8777C45.0492 27.6667 44.7464 27.8159 44.678 27.66C44.5521 27.4273 44.603 27.1462 44.5896 26.8927C44.6063 26.5382 44.5521 26.1746 44.6263 25.826C44.6797 25.6216 45.0208 25.7459 45.0225 25.5382C44.7089 25.5291 44.3961 25.5491 44.0834 25.5407C43.7731 26.0495 43.5246 26.5958 43.3077 27.1512C43.2093 27.107 43.196 26.9853 43.1484 26.9019C42.9441 26.4482 42.7381 25.9961 42.5296 25.5457C42.1735 25.5432 41.8165 25.5432 41.4604 25.5349Z" fill="#E0E0E0"/>
<path d="M20.3278 17.4498C20.6089 17.3747 20.89 17.2988 21.1719 17.2246C21.1735 21.5031 21.1694 25.7816 21.1727 30.061C21.7357 30.4104 22.3929 30.5614 23.0367 30.6848C24.3495 30.8967 25.6972 30.9042 27.0133 30.714C28.5137 30.503 29.9799 30.0034 31.5087 30.0401C32.3344 30.0602 33.2309 30.3187 33.7464 31.0084C33.8982 31.0084 34.0499 31.0093 34.2026 31.0109C34.7213 30.3279 35.6096 30.0602 36.4352 30.0401C37.9106 30.0001 39.3293 30.468 40.7738 30.6873C42.1491 30.9067 43.5619 30.905 44.9372 30.6823C45.5769 30.5597 46.2283 30.4063 46.7887 30.0602C46.7921 25.7833 46.7896 21.5065 46.7896 17.2296C47.064 17.3047 47.34 17.3706 47.6119 17.4556C47.6027 22.1795 47.6169 26.9034 47.6044 31.6273C45.3684 31.9225 43.1065 32.1177 40.8505 31.9692C40.0148 31.9284 39.1833 31.8391 38.3518 31.7515C37.4352 31.6756 36.5186 31.6039 35.602 31.5314C35.6212 31.8324 35.6112 32.1352 35.6187 32.4371C34.5712 32.8399 33.356 32.8791 32.3169 32.4304C32.3327 32.1335 32.3194 31.8358 32.3277 31.538C30.4403 31.6431 28.5654 31.8958 26.6772 31.9926C24.558 32.0952 22.4379 31.9017 20.3378 31.6298C20.3128 26.9034 20.3337 22.1762 20.3278 17.4498Z" fill="#E0E0E0"/>
<path d="M40.5505 18.2637C40.8007 18.1886 41.0867 18.2945 41.2219 18.5197C41.4579 18.8842 41.4454 19.3529 41.3778 19.7657C41.3244 20.0977 41.0601 20.4421 40.6906 20.4013C40.2477 20.3671 40.0626 19.865 40.0476 19.4822C40.0175 19.0435 40.0893 18.4555 40.5505 18.2637Z" fill="#E0E0E0"/>
<path d="M48.0592 19.6749C48.4704 19.6799 48.8832 19.6607 49.2944 19.6849C49.2835 20.458 49.2927 21.232 49.2894 22.006C48.8815 22.0085 48.4737 22.0035 48.0659 22.0093C48.05 21.2312 48.0625 20.453 48.0592 19.6749Z" fill="#E0E0E0"/>
<path d="M18.6491 19.6749C19.0586 19.6741 19.4681 19.6741 19.8784 19.6749C19.8784 20.4522 19.8792 21.2287 19.8776 22.006C19.4681 22.0069 19.0586 22.0069 18.6491 22.006C18.6482 21.2287 18.6482 20.4522 18.6491 19.6749Z" fill="#E0E0E0"/>
<path d="M39.2834 23.1594C39.3869 22.8775 39.4978 22.5931 39.6579 22.3379C39.7663 22.6131 39.8839 22.8842 39.9974 23.1577C39.7588 23.1569 39.5211 23.1577 39.2834 23.1594Z" fill="#E0E0E0"/>
<path d="M18.6491 26.5735C19.0602 26.5769 19.4722 26.5635 19.8834 26.581C19.8634 27.3575 19.8993 28.1348 19.8659 28.9105C19.4597 28.8988 19.0544 28.9079 18.6491 28.9046C18.6482 28.1273 18.6482 27.35 18.6491 26.5735Z" fill="#E0E0E0"/>
<path d="M48.0566 26.5773C48.467 26.569 48.8781 26.5748 49.2893 26.574C49.2901 27.3504 49.2901 28.1277 49.2893 28.9051C48.8781 28.9017 48.467 28.9142 48.0558 28.8975C48.0616 28.1244 48.06 27.3504 48.0566 26.5773Z" fill="#E0E0E0"/>
<path d="M2.21912 36.4588C2.22579 36.4204 2.2408 36.3437 2.24831 36.3062C3.35422 36.3729 4.4668 36.3162 5.57521 36.3353C25.62 36.3353 45.6648 36.3345 65.7096 36.3353C64.0299 44.4612 61.0408 52.306 56.9741 59.5352C56.8823 59.4443 56.7981 59.3593 56.7072 59.2717C49.1118 52.0207 41.5347 44.7498 33.9377 37.4996C29.3656 41.8799 24.7852 46.251 20.2072 50.6254C17.1264 53.582 14.023 56.5161 10.9546 59.4852C10.5785 58.7746 10.174 58.0799 9.80785 57.3643C6.33333 50.7889 3.77706 43.7306 2.21912 36.4588Z" fill="#E0E0E0"/>
<path d="M21.3156 67.4149C25.5257 63.3441 29.7366 59.2741 33.9409 55.1982C39.1419 60.2182 44.3336 65.249 49.5337 70.2698C49.5638 70.2973 49.623 70.3515 49.653 70.3782C45.0993 76.0679 39.8082 81.1654 33.9501 85.4998C32.3713 84.3113 30.8209 83.0837 29.323 81.7943C25.288 78.3356 21.5983 74.4824 18.2772 70.3365C19.3131 69.3874 20.2997 68.3849 21.3156 67.4149Z" fill="#E0E0E0"/>
</svg>
