<svg width="46" height="68" viewBox="0 0 46 68" fill="none" xmlns="http://www.w3.org/2000/svg">
<path d="M0.45752 9.76604V34.4602L8.91382 42.8569L29.1269 42.8555V51.4307H18.7352V45.8382H0.475918V59.3385L8.9676 67.8349H36.821L45.2773 59.4466V34.4672L36.6611 26.2012H18.1096L18.1103 17.0058L28.376 17.0051V23.3428H45.2766L45.2773 9.77588L35.814 0.165283H10.1918L0.45752 9.76604Z" fill="#E0E0E0"/>
<path d="M1.57068 10.2662V34.024L9.36675 41.7646C9.36675 41.7646 28.2169 41.7646 30.24 41.7639C30.24 43.4583 30.24 50.8821 30.2393 52.5758C28.4723 52.5758 19.3643 52.5758 17.5952 52.5772C17.5959 51.1462 17.5959 46.9847 17.5959 46.9847L1.58908 46.984V58.8924L9.40921 66.7447H36.3469L44.1374 59.0055V34.9436L36.1672 27.347H16.9689C16.9696 25.6294 16.9696 17.631 16.9689 15.9142H29.4892V22.2505H44.1374V10.2719L35.3364 1.31177H10.632L1.57068 10.2662Z" fill="#8A8B8C"/>
<path d="M11.092 2.51025L2.70435 10.8206V33.6426L9.83948 40.7271H31.3723L31.3716 53.7771H16.475V48.1839L2.72062 48.1846V58.4998L9.87062 65.7065H35.8913L43.0158 58.6171L43.0172 35.4761L35.6938 28.5462L15.8481 28.5455L15.8473 14.876H30.6222V21.2137H43.0158L43.0172 10.8206L34.8786 2.51025H11.092Z" fill="#E0E0E0"/>
</svg>
