<svg width="129" height="56" viewBox="0 0 129 56" fill="none" xmlns="http://www.w3.org/2000/svg">
<path d="M43.2231 11.9885L30.2798 33.9159V48.6662C31.7698 52.2154 35.5355 52.6882 39.1445 52.8463V54.8969H13.8056V52.8463C17.4143 52.6882 21.8074 52.1367 22.9839 49.7707V34.5469L9.80478 12.1459C7.53023 8.35982 5.3337 7.09839 0.940399 6.78252V4.73192H22.9842V6.78252C18.8262 7.01891 17.4929 7.80833 16.3163 8.75517L28.554 30.0508L40.5564 8.83337C39.3013 7.88704 37.654 7.01891 33.4963 6.78277V4.73218H52.3234V6.78277C48.0871 6.94071 45.4199 8.35982 43.2231 11.9885ZM68.9536 55.6069C64.7179 55.6069 62.6779 52.6882 62.5211 50.6381C59.8536 53.4773 56.4025 55.6069 53.1077 55.6069C48.8715 55.6069 45.2626 53.0038 45.2626 48.5088C45.2626 46.2995 45.8118 44.012 46.9103 42.1983L62.5211 36.519V30.682C62.5211 27.1329 60.8736 23.7411 57.3434 23.7411C55.2255 23.7411 53.1858 26.3434 53.0292 30.3667L45.9684 31.5492V30.7613C48.3217 23.6616 56.0884 20.9016 59.8534 20.9016C66.9922 20.9016 69.5809 24.6872 69.5026 30.5241L69.2675 47.0879C69.189 50.3219 70.9145 51.1106 72.4838 51.1106C73.7386 51.1106 74.9937 50.3219 76.4846 48.8236V51.1106C74.7591 53.162 71.6999 55.6069 68.9536 55.6069ZM53.2645 42.7503C52.9507 44.012 52.7155 45.1162 52.7155 46.8517C52.7155 49.2177 54.0492 51.5836 56.6376 51.5836C58.991 51.5836 60.3246 50.7957 62.4428 49.139L62.5211 38.4901C60.4817 39.4367 55.4613 41.646 53.2645 42.7503ZM77.191 54.8969V53.0825C80.7208 52.8461 81.7401 52.0574 82.3686 50.7158V9.85816C82.3686 7.17633 81.9759 6.07258 76.5632 5.59903V4.02172L90.9194 0.393311L91.3896 1.73499L89.115 4.57424V50.716C89.8994 52.2941 91.3896 52.8463 94.6061 53.0827V54.8972L77.191 54.8969ZM113.433 55.5279C105.196 55.5279 98.8418 48.9813 98.8418 39.8315C98.8418 28.6309 105.667 20.9798 115.316 20.9798C123.082 20.9798 127.397 25.3979 127.397 32.4173V33.8369L106.216 33.6795C106.06 34.5469 105.98 35.9672 105.98 37.702C105.98 45.7472 111.001 51.0319 117.67 51.0319C121.67 51.0319 123.71 49.612 126.847 46.9304L128.024 48.7441C123.553 52.8463 119.866 55.5279 113.433 55.5279ZM114.14 23.4257C110.217 23.4257 107.472 26.5803 106.53 31.5492L120.338 31.3917C120.337 27.2113 117.748 23.4257 114.14 23.4257Z" fill="#E0E0E0"/>
</svg>
